<svg width="29" height="28" viewBox="0 0 29 28" fill="none" xmlns="http://www.w3.org/2000/svg">
<path d="M22.7377 16.2304L22.0958 15.3167C21.834 14.9437 21.6949 14.505 21.6949 14.0499V10.784C21.6949 6.46094 18.1786 2.94531 13.8563 2.94531C9.53395 2.94531 6.01833 6.46165 6.01833 10.7832V14.0492C6.01833 14.5064 5.87996 14.9458 5.61677 15.3195L4.97627 16.2318C4.58041 16.7967 4.49125 17.5171 4.73804 18.1604C4.98554 18.8059 5.53688 19.2838 6.21233 19.4393C7.51759 19.7396 8.84138 19.9585 10.1723 20.1033C10.1595 20.231 10.1431 20.358 10.1431 20.4871C10.1431 22.5348 11.8085 24.201 13.857 24.201C15.9054 24.201 17.5716 22.5348 17.5716 20.4871C17.5716 20.3587 17.5552 20.2317 17.5424 20.1048C18.8733 19.9607 20.1942 19.7424 21.4952 19.4429C22.1728 19.2866 22.7263 18.8059 22.9745 18.1576C23.2213 17.5142 23.1328 16.7938 22.7377 16.2304ZM16.2863 20.4863C16.2863 21.8265 15.1965 22.9157 13.8563 22.9157C12.5161 22.9157 11.4262 21.8265 11.4262 20.4863C11.4262 20.3936 11.4369 20.3023 11.4469 20.2117C12.2493 20.2688 13.0524 20.308 13.8563 20.308C14.6608 20.308 15.4639 20.2695 16.2656 20.2125C16.2756 20.3037 16.2863 20.3943 16.2863 20.4863ZM21.7762 17.6975C21.6785 17.95 21.471 18.1298 21.2063 18.1911C16.4097 19.2938 11.3271 19.2988 6.49977 18.1875C6.2373 18.1269 6.03188 17.9493 5.9363 17.6997C5.84215 17.4522 5.87496 17.1861 6.0276 16.9693L6.6681 16.0563C7.08321 15.4658 7.30218 14.771 7.30218 14.0492V10.7832C7.30218 7.1692 10.2429 4.22917 13.8563 4.22917C17.4696 4.22917 20.4103 7.1692 20.4103 10.7825V14.0485C20.4103 14.7696 20.63 15.4629 21.0451 16.0542L21.6864 16.9672C21.8376 17.184 21.8704 17.4507 21.7762 17.6975Z" fill="white"/>
<path d="M13.2704 6.29585C11.5479 6.70669 10.1606 8.01622 9.65133 9.71305C9.54934 10.0526 9.74191 10.4106 10.0814 10.5126C10.1428 10.5304 10.2048 10.5397 10.2662 10.5397C10.5422 10.5397 10.7975 10.36 10.8803 10.0818C11.259 8.82148 12.2889 7.84932 13.5685 7.54333C13.913 7.46131 14.1263 7.11467 14.0443 6.77017C13.9615 6.42638 13.6142 6.21098 13.2704 6.29585Z" fill="white"/>
</svg>
