<svg width="21" height="21" viewBox="0 0 21 21" fill="none" xmlns="http://www.w3.org/2000/svg">
<mask id="path-1-outside-1_753_14639" maskUnits="userSpaceOnUse" x="-0.0839844" y="0.191406" width="21" height="21" fill="black">
<rect fill="white" x="-0.0839844" y="0.191406" width="21" height="21"/>
<path d="M9.38733 0.571201C9.04878 0.698154 8.72178 1.04439 8.6333 1.36755C8.59867 1.5022 8.39862 2.9641 8.39862 3.0872C8.39862 3.10644 8.30629 3.15261 8.19857 3.19107C8.08701 3.2257 7.84079 3.32188 7.65229 3.40267C7.46378 3.4873 7.29835 3.5527 7.28296 3.5527C7.27142 3.5527 6.95596 3.31803 6.58664 3.03334C6.01342 2.58323 5.87877 2.4986 5.65564 2.42935C5.34787 2.33702 5.07858 2.35241 4.7862 2.47936C4.53229 2.58708 2.97421 4.14515 2.86265 4.40291C2.73569 4.6876 2.7203 4.96459 2.81264 5.27236C2.88188 5.49549 2.96652 5.63014 3.41663 6.20335C3.70132 6.57268 3.93599 6.88814 3.93599 6.89968C3.93599 6.91507 3.87059 7.08049 3.78595 7.269C3.70516 7.45751 3.60898 7.70372 3.57436 7.81144C3.53589 7.92301 3.48588 8.01534 3.4628 8.01534C3.43587 8.01918 3.04346 8.06535 2.58566 8.1269C1.66235 8.24616 1.51616 8.29233 1.24687 8.56163C1.15838 8.65011 1.05066 8.80399 1.00065 8.90017C0.919863 9.06944 0.916016 9.10407 0.916016 10.3621C0.916016 11.6316 0.916016 11.6547 1.0045 11.8317C1.05451 11.9317 1.16223 12.0817 1.24687 12.1664C1.50847 12.428 1.66235 12.478 2.58566 12.5972C3.04346 12.6588 3.43587 12.7088 3.4628 12.7088C3.48588 12.7088 3.53589 12.8011 3.57436 12.9088C3.60898 13.0204 3.70516 13.2666 3.78595 13.4551C3.87059 13.6436 3.93599 13.8091 3.93599 13.8245C3.93599 13.8398 3.70132 14.1515 3.41663 14.5208C2.83572 15.2671 2.76262 15.421 2.76647 15.8442C2.77032 16.3058 2.82802 16.3905 3.77441 17.3369C4.7208 18.2794 4.80928 18.3371 5.26324 18.341C5.69027 18.3448 5.8403 18.2717 6.59049 17.6908C6.95981 17.4061 7.27142 17.1714 7.28296 17.1714C7.29835 17.1714 7.46378 17.2368 7.65229 17.3215C7.84079 17.4023 8.08701 17.4984 8.19857 17.5331C8.30629 17.5715 8.39862 17.6215 8.39862 17.6446C8.39862 17.6716 8.44864 18.064 8.51019 18.5218C8.62945 19.4489 8.67946 19.5951 8.94491 19.8606C9.03339 19.949 9.18728 20.0568 9.28346 20.1068C9.45273 20.1876 9.48735 20.1914 10.7454 20.1914C12.0034 20.1914 12.038 20.1876 12.2073 20.1068C12.4342 19.9952 12.6843 19.7451 12.7882 19.5297C12.8497 19.4066 12.9036 19.1258 12.9805 18.5448C13.0421 18.0947 13.0882 17.6985 13.0921 17.6639C13.0921 17.6215 13.1575 17.5792 13.296 17.5331C13.4037 17.4984 13.6499 17.4023 13.8384 17.3215C14.0269 17.2368 14.1924 17.1714 14.2077 17.1714C14.2231 17.1714 14.5347 17.4061 14.9041 17.6908C15.6543 18.2717 15.8043 18.3448 16.2275 18.341C16.6853 18.3371 16.7738 18.2756 17.7009 17.3522C18.6665 16.3905 18.7281 16.2981 18.7281 15.8057C18.7242 15.3902 18.6704 15.2825 18.0779 14.5208C17.8086 14.1745 17.5778 13.8706 17.5701 13.8475C17.5624 13.8245 17.6201 13.6475 17.7009 13.459C17.7855 13.2666 17.8817 13.0204 17.9163 12.9088C17.9548 12.8011 17.9971 12.7088 18.0164 12.7088C18.1241 12.7088 19.6014 12.5049 19.7283 12.4741C19.9361 12.4203 20.2015 12.2356 20.3554 12.0356C20.5901 11.7278 20.5978 11.6624 20.5862 10.3005C20.5747 9.10791 20.5708 9.06944 20.4862 8.89248C20.4362 8.79245 20.3285 8.64242 20.2438 8.55778C19.9784 8.29233 19.8284 8.24616 18.8666 8.11921C18.3895 8.05766 17.9971 8.0038 17.9933 7.99995C17.9163 7.81529 17.5816 6.98047 17.5701 6.93815C17.5586 6.90353 17.7663 6.5996 18.0741 6.2072C18.5242 5.63014 18.6088 5.49549 18.6781 5.27236C18.7704 4.96459 18.755 4.6876 18.6281 4.40291C18.5165 4.14515 16.9584 2.58708 16.7045 2.47936C16.4121 2.35241 16.1428 2.33702 15.8351 2.42935C15.6119 2.4986 15.4773 2.58323 14.9041 3.03334C14.5347 3.31803 14.2193 3.5527 14.2077 3.5527C14.1924 3.5527 14.0269 3.4873 13.8384 3.40267C13.6499 3.32188 13.4037 3.2257 13.296 3.19107C13.1844 3.15261 13.0921 3.10259 13.0921 3.07951C13.0921 3.05258 13.0421 2.66018 12.9805 2.20237C12.8613 1.27522 12.8112 1.12903 12.5458 0.863581C12.4573 0.775097 12.3034 0.667377 12.2073 0.617365C12.0418 0.536577 11.9918 0.53273 10.7838 0.525036C9.77973 0.517342 9.50274 0.528883 9.38733 0.571201ZM11.8956 1.45603C11.9572 1.50989 12.0187 1.58683 12.0303 1.62146C12.0418 1.65608 12.1034 2.10619 12.1688 2.61786C12.2342 3.12952 12.2996 3.59117 12.3188 3.64119C12.3688 3.77584 12.4265 3.80661 12.8651 3.95665C13.0844 4.03359 13.4614 4.19132 13.7038 4.30673C14.1462 4.51832 14.3001 4.5491 14.4501 4.46831C14.4963 4.44523 14.7963 4.2221 15.1118 3.97588C16.0736 3.2257 16.0467 3.24493 16.2005 3.24493C16.3313 3.24493 16.3929 3.29495 17.1008 4.00666C17.8048 4.71068 17.8625 4.77608 17.8625 4.90303C17.8625 5.06077 17.8394 5.09539 17.1508 5.97637C16.893 6.30723 16.6583 6.61499 16.6353 6.66116C16.5583 6.80735 16.5929 6.96508 16.8007 7.40365C16.9161 7.64602 17.0738 8.02303 17.1508 8.24232C17.3008 8.67704 17.3316 8.73859 17.4662 8.7886C17.5124 8.80399 17.9741 8.87324 18.4857 8.93864C19.0012 9.00404 19.4513 9.0656 19.486 9.07714C19.5206 9.08868 19.5975 9.15023 19.6514 9.21179L19.7476 9.33105V10.3621V11.3931L19.6514 11.5124C19.5975 11.5739 19.5206 11.6355 19.486 11.647C19.4513 11.6585 18.9974 11.7201 18.4819 11.7855C17.9664 11.8509 17.5086 11.9201 17.4624 11.9394C17.3354 11.9855 17.297 12.0471 17.1508 12.4818C17.0738 12.7011 16.9161 13.0781 16.8007 13.3205C16.5929 13.7591 16.5583 13.9168 16.6353 14.063C16.6583 14.1091 16.8815 14.4054 17.1315 14.7247C17.8894 15.7057 17.8625 15.6634 17.8625 15.8173C17.8625 15.9481 17.8125 16.0096 17.1008 16.7175C16.3967 17.4215 16.3313 17.4792 16.2044 17.4792C16.0467 17.4792 16.012 17.4561 15.131 16.7675C14.8002 16.5097 14.4924 16.2751 14.4463 16.252C14.3001 16.175 14.1423 16.2097 13.7038 16.4174C13.4614 16.5328 13.0844 16.6905 12.8651 16.7675C12.4304 16.9175 12.3688 16.9483 12.3188 17.083C12.3034 17.1291 12.2342 17.5908 12.1688 18.1024C12.1034 18.6179 12.0418 19.0681 12.0303 19.1027C12.0187 19.1373 11.9572 19.2142 11.8956 19.2681L11.7764 19.3643H10.7454H9.71433L9.59507 19.2681C9.53352 19.2142 9.47196 19.1373 9.46042 19.1027C9.44888 19.0681 9.38733 18.6179 9.32193 18.1024C9.25653 17.5908 9.18728 17.1291 9.17189 17.083C9.12188 16.9483 9.06032 16.9175 8.6256 16.7675C8.40632 16.6905 8.0293 16.5328 7.78693 16.4174C7.34452 16.2058 7.19063 16.175 7.0406 16.2558C6.99443 16.2789 6.69821 16.502 6.3789 16.7483C5.41712 17.4984 5.44405 17.4792 5.29017 17.4792C5.15937 17.4792 5.09781 17.4292 4.38995 16.7175C3.68593 16.0135 3.62822 15.9481 3.62822 15.8211C3.62822 15.6634 3.6513 15.6287 4.33993 14.7478C4.59769 14.4169 4.83236 14.1091 4.85544 14.063C4.93239 13.9168 4.89776 13.7591 4.69002 13.3205C4.57461 13.0781 4.41688 12.7011 4.33993 12.4818C4.1899 12.0471 4.15912 11.9855 4.02447 11.9355C3.97831 11.9201 3.51665 11.8509 3.00499 11.7855C2.48948 11.7201 2.03937 11.6585 2.00474 11.647C1.97012 11.6355 1.89318 11.5739 1.83932 11.5124L1.74314 11.3931V10.3621V9.33105L1.83932 9.21179C1.89318 9.15023 1.97012 9.08868 2.00474 9.07714C2.03937 9.0656 2.48948 9.00404 3.00114 8.93864C3.51281 8.87324 3.97446 8.80784 4.02447 8.7886C4.15912 8.73859 4.1899 8.68089 4.33993 8.24232C4.41688 8.02303 4.57461 7.64602 4.69002 7.40365C4.89776 6.96508 4.93239 6.80735 4.85544 6.66116C4.83236 6.61499 4.59769 6.30723 4.33993 5.97637C3.6513 5.09539 3.62822 5.06077 3.62822 4.90303C3.62822 4.77608 3.68593 4.71068 4.38995 4.00666C5.09781 3.29495 5.15937 3.24493 5.29017 3.24493C5.44405 3.24493 5.41712 3.2257 6.3789 3.97588C6.69821 4.2221 6.99443 4.44523 7.0406 4.46831C7.19448 4.55295 7.34452 4.51832 7.82541 4.2875C8.08701 4.16439 8.44864 4.01435 8.62945 3.95665C9.01801 3.83354 9.12188 3.77199 9.16804 3.64888C9.18728 3.59502 9.25653 3.13337 9.32193 2.6217C9.38733 2.10619 9.44888 1.65608 9.46042 1.62146C9.47196 1.58683 9.53352 1.50989 9.59507 1.45603L9.71433 1.35986H10.7454H11.7764L11.8956 1.45603Z"/>
</mask>
<path d="M9.38733 0.571201C9.04878 0.698154 8.72178 1.04439 8.6333 1.36755C8.59867 1.5022 8.39862 2.9641 8.39862 3.0872C8.39862 3.10644 8.30629 3.15261 8.19857 3.19107C8.08701 3.2257 7.84079 3.32188 7.65229 3.40267C7.46378 3.4873 7.29835 3.5527 7.28296 3.5527C7.27142 3.5527 6.95596 3.31803 6.58664 3.03334C6.01342 2.58323 5.87877 2.4986 5.65564 2.42935C5.34787 2.33702 5.07858 2.35241 4.7862 2.47936C4.53229 2.58708 2.97421 4.14515 2.86265 4.40291C2.73569 4.6876 2.7203 4.96459 2.81264 5.27236C2.88188 5.49549 2.96652 5.63014 3.41663 6.20335C3.70132 6.57268 3.93599 6.88814 3.93599 6.89968C3.93599 6.91507 3.87059 7.08049 3.78595 7.269C3.70516 7.45751 3.60898 7.70372 3.57436 7.81144C3.53589 7.92301 3.48588 8.01534 3.4628 8.01534C3.43587 8.01918 3.04346 8.06535 2.58566 8.1269C1.66235 8.24616 1.51616 8.29233 1.24687 8.56163C1.15838 8.65011 1.05066 8.80399 1.00065 8.90017C0.919863 9.06944 0.916016 9.10407 0.916016 10.3621C0.916016 11.6316 0.916016 11.6547 1.0045 11.8317C1.05451 11.9317 1.16223 12.0817 1.24687 12.1664C1.50847 12.428 1.66235 12.478 2.58566 12.5972C3.04346 12.6588 3.43587 12.7088 3.4628 12.7088C3.48588 12.7088 3.53589 12.8011 3.57436 12.9088C3.60898 13.0204 3.70516 13.2666 3.78595 13.4551C3.87059 13.6436 3.93599 13.8091 3.93599 13.8245C3.93599 13.8398 3.70132 14.1515 3.41663 14.5208C2.83572 15.2671 2.76262 15.421 2.76647 15.8442C2.77032 16.3058 2.82802 16.3905 3.77441 17.3369C4.7208 18.2794 4.80928 18.3371 5.26324 18.341C5.69027 18.3448 5.8403 18.2717 6.59049 17.6908C6.95981 17.4061 7.27142 17.1714 7.28296 17.1714C7.29835 17.1714 7.46378 17.2368 7.65229 17.3215C7.84079 17.4023 8.08701 17.4984 8.19857 17.5331C8.30629 17.5715 8.39862 17.6215 8.39862 17.6446C8.39862 17.6716 8.44864 18.064 8.51019 18.5218C8.62945 19.4489 8.67946 19.5951 8.94491 19.8606C9.03339 19.949 9.18728 20.0568 9.28346 20.1068C9.45273 20.1876 9.48735 20.1914 10.7454 20.1914C12.0034 20.1914 12.038 20.1876 12.2073 20.1068C12.4342 19.9952 12.6843 19.7451 12.7882 19.5297C12.8497 19.4066 12.9036 19.1258 12.9805 18.5448C13.0421 18.0947 13.0882 17.6985 13.0921 17.6639C13.0921 17.6215 13.1575 17.5792 13.296 17.5331C13.4037 17.4984 13.6499 17.4023 13.8384 17.3215C14.0269 17.2368 14.1924 17.1714 14.2077 17.1714C14.2231 17.1714 14.5347 17.4061 14.9041 17.6908C15.6543 18.2717 15.8043 18.3448 16.2275 18.341C16.6853 18.3371 16.7738 18.2756 17.7009 17.3522C18.6665 16.3905 18.7281 16.2981 18.7281 15.8057C18.7242 15.3902 18.6704 15.2825 18.0779 14.5208C17.8086 14.1745 17.5778 13.8706 17.5701 13.8475C17.5624 13.8245 17.6201 13.6475 17.7009 13.459C17.7855 13.2666 17.8817 13.0204 17.9163 12.9088C17.9548 12.8011 17.9971 12.7088 18.0164 12.7088C18.1241 12.7088 19.6014 12.5049 19.7283 12.4741C19.9361 12.4203 20.2015 12.2356 20.3554 12.0356C20.5901 11.7278 20.5978 11.6624 20.5862 10.3005C20.5747 9.10791 20.5708 9.06944 20.4862 8.89248C20.4362 8.79245 20.3285 8.64242 20.2438 8.55778C19.9784 8.29233 19.8284 8.24616 18.8666 8.11921C18.3895 8.05766 17.9971 8.0038 17.9933 7.99995C17.9163 7.81529 17.5816 6.98047 17.5701 6.93815C17.5586 6.90353 17.7663 6.5996 18.0741 6.2072C18.5242 5.63014 18.6088 5.49549 18.6781 5.27236C18.7704 4.96459 18.755 4.6876 18.6281 4.40291C18.5165 4.14515 16.9584 2.58708 16.7045 2.47936C16.4121 2.35241 16.1428 2.33702 15.8351 2.42935C15.6119 2.4986 15.4773 2.58323 14.9041 3.03334C14.5347 3.31803 14.2193 3.5527 14.2077 3.5527C14.1924 3.5527 14.0269 3.4873 13.8384 3.40267C13.6499 3.32188 13.4037 3.2257 13.296 3.19107C13.1844 3.15261 13.0921 3.10259 13.0921 3.07951C13.0921 3.05258 13.0421 2.66018 12.9805 2.20237C12.8613 1.27522 12.8112 1.12903 12.5458 0.863581C12.4573 0.775097 12.3034 0.667377 12.2073 0.617365C12.0418 0.536577 11.9918 0.53273 10.7838 0.525036C9.77973 0.517342 9.50274 0.528883 9.38733 0.571201ZM11.8956 1.45603C11.9572 1.50989 12.0187 1.58683 12.0303 1.62146C12.0418 1.65608 12.1034 2.10619 12.1688 2.61786C12.2342 3.12952 12.2996 3.59117 12.3188 3.64119C12.3688 3.77584 12.4265 3.80661 12.8651 3.95665C13.0844 4.03359 13.4614 4.19132 13.7038 4.30673C14.1462 4.51832 14.3001 4.5491 14.4501 4.46831C14.4963 4.44523 14.7963 4.2221 15.1118 3.97588C16.0736 3.2257 16.0467 3.24493 16.2005 3.24493C16.3313 3.24493 16.3929 3.29495 17.1008 4.00666C17.8048 4.71068 17.8625 4.77608 17.8625 4.90303C17.8625 5.06077 17.8394 5.09539 17.1508 5.97637C16.893 6.30723 16.6583 6.61499 16.6353 6.66116C16.5583 6.80735 16.5929 6.96508 16.8007 7.40365C16.9161 7.64602 17.0738 8.02303 17.1508 8.24232C17.3008 8.67704 17.3316 8.73859 17.4662 8.7886C17.5124 8.80399 17.9741 8.87324 18.4857 8.93864C19.0012 9.00404 19.4513 9.0656 19.486 9.07714C19.5206 9.08868 19.5975 9.15023 19.6514 9.21179L19.7476 9.33105V10.3621V11.3931L19.6514 11.5124C19.5975 11.5739 19.5206 11.6355 19.486 11.647C19.4513 11.6585 18.9974 11.7201 18.4819 11.7855C17.9664 11.8509 17.5086 11.9201 17.4624 11.9394C17.3354 11.9855 17.297 12.0471 17.1508 12.4818C17.0738 12.7011 16.9161 13.0781 16.8007 13.3205C16.5929 13.7591 16.5583 13.9168 16.6353 14.063C16.6583 14.1091 16.8815 14.4054 17.1315 14.7247C17.8894 15.7057 17.8625 15.6634 17.8625 15.8173C17.8625 15.9481 17.8125 16.0096 17.1008 16.7175C16.3967 17.4215 16.3313 17.4792 16.2044 17.4792C16.0467 17.4792 16.012 17.4561 15.131 16.7675C14.8002 16.5097 14.4924 16.2751 14.4463 16.252C14.3001 16.175 14.1423 16.2097 13.7038 16.4174C13.4614 16.5328 13.0844 16.6905 12.8651 16.7675C12.4304 16.9175 12.3688 16.9483 12.3188 17.083C12.3034 17.1291 12.2342 17.5908 12.1688 18.1024C12.1034 18.6179 12.0418 19.0681 12.0303 19.1027C12.0187 19.1373 11.9572 19.2142 11.8956 19.2681L11.7764 19.3643H10.7454H9.71433L9.59507 19.2681C9.53352 19.2142 9.47196 19.1373 9.46042 19.1027C9.44888 19.0681 9.38733 18.6179 9.32193 18.1024C9.25653 17.5908 9.18728 17.1291 9.17189 17.083C9.12188 16.9483 9.06032 16.9175 8.6256 16.7675C8.40632 16.6905 8.0293 16.5328 7.78693 16.4174C7.34452 16.2058 7.19063 16.175 7.0406 16.2558C6.99443 16.2789 6.69821 16.502 6.3789 16.7483C5.41712 17.4984 5.44405 17.4792 5.29017 17.4792C5.15937 17.4792 5.09781 17.4292 4.38995 16.7175C3.68593 16.0135 3.62822 15.9481 3.62822 15.8211C3.62822 15.6634 3.6513 15.6287 4.33993 14.7478C4.59769 14.4169 4.83236 14.1091 4.85544 14.063C4.93239 13.9168 4.89776 13.7591 4.69002 13.3205C4.57461 13.0781 4.41688 12.7011 4.33993 12.4818C4.1899 12.0471 4.15912 11.9855 4.02447 11.9355C3.97831 11.9201 3.51665 11.8509 3.00499 11.7855C2.48948 11.7201 2.03937 11.6585 2.00474 11.647C1.97012 11.6355 1.89318 11.5739 1.83932 11.5124L1.74314 11.3931V10.3621V9.33105L1.83932 9.21179C1.89318 9.15023 1.97012 9.08868 2.00474 9.07714C2.03937 9.0656 2.48948 9.00404 3.00114 8.93864C3.51281 8.87324 3.97446 8.80784 4.02447 8.7886C4.15912 8.73859 4.1899 8.68089 4.33993 8.24232C4.41688 8.02303 4.57461 7.64602 4.69002 7.40365C4.89776 6.96508 4.93239 6.80735 4.85544 6.66116C4.83236 6.61499 4.59769 6.30723 4.33993 5.97637C3.6513 5.09539 3.62822 5.06077 3.62822 4.90303C3.62822 4.77608 3.68593 4.71068 4.38995 4.00666C5.09781 3.29495 5.15937 3.24493 5.29017 3.24493C5.44405 3.24493 5.41712 3.2257 6.3789 3.97588C6.69821 4.2221 6.99443 4.44523 7.0406 4.46831C7.19448 4.55295 7.34452 4.51832 7.82541 4.2875C8.08701 4.16439 8.44864 4.01435 8.62945 3.95665C9.01801 3.83354 9.12188 3.77199 9.16804 3.64888C9.18728 3.59502 9.25653 3.13337 9.32193 2.6217C9.38733 2.10619 9.44888 1.65608 9.46042 1.62146C9.47196 1.58683 9.53352 1.50989 9.59507 1.45603L9.71433 1.35986H10.7454H11.7764L11.8956 1.45603Z" fill="white"/>
<path d="M9.38733 0.571201C9.04878 0.698154 8.72178 1.04439 8.6333 1.36755C8.59867 1.5022 8.39862 2.9641 8.39862 3.0872C8.39862 3.10644 8.30629 3.15261 8.19857 3.19107C8.08701 3.2257 7.84079 3.32188 7.65229 3.40267C7.46378 3.4873 7.29835 3.5527 7.28296 3.5527C7.27142 3.5527 6.95596 3.31803 6.58664 3.03334C6.01342 2.58323 5.87877 2.4986 5.65564 2.42935C5.34787 2.33702 5.07858 2.35241 4.7862 2.47936C4.53229 2.58708 2.97421 4.14515 2.86265 4.40291C2.73569 4.6876 2.7203 4.96459 2.81264 5.27236C2.88188 5.49549 2.96652 5.63014 3.41663 6.20335C3.70132 6.57268 3.93599 6.88814 3.93599 6.89968C3.93599 6.91507 3.87059 7.08049 3.78595 7.269C3.70516 7.45751 3.60898 7.70372 3.57436 7.81144C3.53589 7.92301 3.48588 8.01534 3.4628 8.01534C3.43587 8.01918 3.04346 8.06535 2.58566 8.1269C1.66235 8.24616 1.51616 8.29233 1.24687 8.56163C1.15838 8.65011 1.05066 8.80399 1.00065 8.90017C0.919863 9.06944 0.916016 9.10407 0.916016 10.3621C0.916016 11.6316 0.916016 11.6547 1.0045 11.8317C1.05451 11.9317 1.16223 12.0817 1.24687 12.1664C1.50847 12.428 1.66235 12.478 2.58566 12.5972C3.04346 12.6588 3.43587 12.7088 3.4628 12.7088C3.48588 12.7088 3.53589 12.8011 3.57436 12.9088C3.60898 13.0204 3.70516 13.2666 3.78595 13.4551C3.87059 13.6436 3.93599 13.8091 3.93599 13.8245C3.93599 13.8398 3.70132 14.1515 3.41663 14.5208C2.83572 15.2671 2.76262 15.421 2.76647 15.8442C2.77032 16.3058 2.82802 16.3905 3.77441 17.3369C4.7208 18.2794 4.80928 18.3371 5.26324 18.341C5.69027 18.3448 5.8403 18.2717 6.59049 17.6908C6.95981 17.4061 7.27142 17.1714 7.28296 17.1714C7.29835 17.1714 7.46378 17.2368 7.65229 17.3215C7.84079 17.4023 8.08701 17.4984 8.19857 17.5331C8.30629 17.5715 8.39862 17.6215 8.39862 17.6446C8.39862 17.6716 8.44864 18.064 8.51019 18.5218C8.62945 19.4489 8.67946 19.5951 8.94491 19.8606C9.03339 19.949 9.18728 20.0568 9.28346 20.1068C9.45273 20.1876 9.48735 20.1914 10.7454 20.1914C12.0034 20.1914 12.038 20.1876 12.2073 20.1068C12.4342 19.9952 12.6843 19.7451 12.7882 19.5297C12.8497 19.4066 12.9036 19.1258 12.9805 18.5448C13.0421 18.0947 13.0882 17.6985 13.0921 17.6639C13.0921 17.6215 13.1575 17.5792 13.296 17.5331C13.4037 17.4984 13.6499 17.4023 13.8384 17.3215C14.0269 17.2368 14.1924 17.1714 14.2077 17.1714C14.2231 17.1714 14.5347 17.4061 14.9041 17.6908C15.6543 18.2717 15.8043 18.3448 16.2275 18.341C16.6853 18.3371 16.7738 18.2756 17.7009 17.3522C18.6665 16.3905 18.7281 16.2981 18.7281 15.8057C18.7242 15.3902 18.6704 15.2825 18.0779 14.5208C17.8086 14.1745 17.5778 13.8706 17.5701 13.8475C17.5624 13.8245 17.6201 13.6475 17.7009 13.459C17.7855 13.2666 17.8817 13.0204 17.9163 12.9088C17.9548 12.8011 17.9971 12.7088 18.0164 12.7088C18.1241 12.7088 19.6014 12.5049 19.7283 12.4741C19.9361 12.4203 20.2015 12.2356 20.3554 12.0356C20.5901 11.7278 20.5978 11.6624 20.5862 10.3005C20.5747 9.10791 20.5708 9.06944 20.4862 8.89248C20.4362 8.79245 20.3285 8.64242 20.2438 8.55778C19.9784 8.29233 19.8284 8.24616 18.8666 8.11921C18.3895 8.05766 17.9971 8.0038 17.9933 7.99995C17.9163 7.81529 17.5816 6.98047 17.5701 6.93815C17.5586 6.90353 17.7663 6.5996 18.0741 6.2072C18.5242 5.63014 18.6088 5.49549 18.6781 5.27236C18.7704 4.96459 18.755 4.6876 18.6281 4.40291C18.5165 4.14515 16.9584 2.58708 16.7045 2.47936C16.4121 2.35241 16.1428 2.33702 15.8351 2.42935C15.6119 2.4986 15.4773 2.58323 14.9041 3.03334C14.5347 3.31803 14.2193 3.5527 14.2077 3.5527C14.1924 3.5527 14.0269 3.4873 13.8384 3.40267C13.6499 3.32188 13.4037 3.2257 13.296 3.19107C13.1844 3.15261 13.0921 3.10259 13.0921 3.07951C13.0921 3.05258 13.0421 2.66018 12.9805 2.20237C12.8613 1.27522 12.8112 1.12903 12.5458 0.863581C12.4573 0.775097 12.3034 0.667377 12.2073 0.617365C12.0418 0.536577 11.9918 0.53273 10.7838 0.525036C9.77973 0.517342 9.50274 0.528883 9.38733 0.571201ZM11.8956 1.45603C11.9572 1.50989 12.0187 1.58683 12.0303 1.62146C12.0418 1.65608 12.1034 2.10619 12.1688 2.61786C12.2342 3.12952 12.2996 3.59117 12.3188 3.64119C12.3688 3.77584 12.4265 3.80661 12.8651 3.95665C13.0844 4.03359 13.4614 4.19132 13.7038 4.30673C14.1462 4.51832 14.3001 4.5491 14.4501 4.46831C14.4963 4.44523 14.7963 4.2221 15.1118 3.97588C16.0736 3.2257 16.0467 3.24493 16.2005 3.24493C16.3313 3.24493 16.3929 3.29495 17.1008 4.00666C17.8048 4.71068 17.8625 4.77608 17.8625 4.90303C17.8625 5.06077 17.8394 5.09539 17.1508 5.97637C16.893 6.30723 16.6583 6.61499 16.6353 6.66116C16.5583 6.80735 16.5929 6.96508 16.8007 7.40365C16.9161 7.64602 17.0738 8.02303 17.1508 8.24232C17.3008 8.67704 17.3316 8.73859 17.4662 8.7886C17.5124 8.80399 17.9741 8.87324 18.4857 8.93864C19.0012 9.00404 19.4513 9.0656 19.486 9.07714C19.5206 9.08868 19.5975 9.15023 19.6514 9.21179L19.7476 9.33105V10.3621V11.3931L19.6514 11.5124C19.5975 11.5739 19.5206 11.6355 19.486 11.647C19.4513 11.6585 18.9974 11.7201 18.4819 11.7855C17.9664 11.8509 17.5086 11.9201 17.4624 11.9394C17.3354 11.9855 17.297 12.0471 17.1508 12.4818C17.0738 12.7011 16.9161 13.0781 16.8007 13.3205C16.5929 13.7591 16.5583 13.9168 16.6353 14.063C16.6583 14.1091 16.8815 14.4054 17.1315 14.7247C17.8894 15.7057 17.8625 15.6634 17.8625 15.8173C17.8625 15.9481 17.8125 16.0096 17.1008 16.7175C16.3967 17.4215 16.3313 17.4792 16.2044 17.4792C16.0467 17.4792 16.012 17.4561 15.131 16.7675C14.8002 16.5097 14.4924 16.2751 14.4463 16.252C14.3001 16.175 14.1423 16.2097 13.7038 16.4174C13.4614 16.5328 13.0844 16.6905 12.8651 16.7675C12.4304 16.9175 12.3688 16.9483 12.3188 17.083C12.3034 17.1291 12.2342 17.5908 12.1688 18.1024C12.1034 18.6179 12.0418 19.0681 12.0303 19.1027C12.0187 19.1373 11.9572 19.2142 11.8956 19.2681L11.7764 19.3643H10.7454H9.71433L9.59507 19.2681C9.53352 19.2142 9.47196 19.1373 9.46042 19.1027C9.44888 19.0681 9.38733 18.6179 9.32193 18.1024C9.25653 17.5908 9.18728 17.1291 9.17189 17.083C9.12188 16.9483 9.06032 16.9175 8.6256 16.7675C8.40632 16.6905 8.0293 16.5328 7.78693 16.4174C7.34452 16.2058 7.19063 16.175 7.0406 16.2558C6.99443 16.2789 6.69821 16.502 6.3789 16.7483C5.41712 17.4984 5.44405 17.4792 5.29017 17.4792C5.15937 17.4792 5.09781 17.4292 4.38995 16.7175C3.68593 16.0135 3.62822 15.9481 3.62822 15.8211C3.62822 15.6634 3.6513 15.6287 4.33993 14.7478C4.59769 14.4169 4.83236 14.1091 4.85544 14.063C4.93239 13.9168 4.89776 13.7591 4.69002 13.3205C4.57461 13.0781 4.41688 12.7011 4.33993 12.4818C4.1899 12.0471 4.15912 11.9855 4.02447 11.9355C3.97831 11.9201 3.51665 11.8509 3.00499 11.7855C2.48948 11.7201 2.03937 11.6585 2.00474 11.647C1.97012 11.6355 1.89318 11.5739 1.83932 11.5124L1.74314 11.3931V10.3621V9.33105L1.83932 9.21179C1.89318 9.15023 1.97012 9.08868 2.00474 9.07714C2.03937 9.0656 2.48948 9.00404 3.00114 8.93864C3.51281 8.87324 3.97446 8.80784 4.02447 8.7886C4.15912 8.73859 4.1899 8.68089 4.33993 8.24232C4.41688 8.02303 4.57461 7.64602 4.69002 7.40365C4.89776 6.96508 4.93239 6.80735 4.85544 6.66116C4.83236 6.61499 4.59769 6.30723 4.33993 5.97637C3.6513 5.09539 3.62822 5.06077 3.62822 4.90303C3.62822 4.77608 3.68593 4.71068 4.38995 4.00666C5.09781 3.29495 5.15937 3.24493 5.29017 3.24493C5.44405 3.24493 5.41712 3.2257 6.3789 3.97588C6.69821 4.2221 6.99443 4.44523 7.0406 4.46831C7.19448 4.55295 7.34452 4.51832 7.82541 4.2875C8.08701 4.16439 8.44864 4.01435 8.62945 3.95665C9.01801 3.83354 9.12188 3.77199 9.16804 3.64888C9.18728 3.59502 9.25653 3.13337 9.32193 2.6217C9.38733 2.10619 9.44888 1.65608 9.46042 1.62146C9.47196 1.58683 9.53352 1.50989 9.59507 1.45603L9.71433 1.35986H10.7454H11.7764L11.8956 1.45603Z" stroke="white" stroke-width="0.46279" mask="url(#path-1-outside-1_753_14639)"/>
<path d="M10.7354 14.5801C11.1034 14.5815 11.4786 14.5522 11.7383 14.4873C13.2597 14.104 14.4423 12.9417 14.8496 11.4395V11.4385C14.8944 11.2691 14.9217 11.1514 14.9365 10.998C14.9511 10.8473 14.9541 10.6635 14.9541 10.3623C14.9541 10.0612 14.9511 9.87777 14.9365 9.72754C14.9217 9.57441 14.8944 9.45766 14.8496 9.29004C14.4753 7.90043 13.4307 6.79118 12.0918 6.3418L11.8203 6.26074C11.5784 6.19824 11.2375 6.15914 10.9053 6.14551C10.6562 6.1353 10.405 6.13959 10.1982 6.16016L10.0078 6.18652C9.57559 6.26904 9.28896 6.36049 8.90234 6.5459C7.79401 7.07632 6.96757 8.08047 6.63965 9.29297V9.29395C6.55157 9.63025 6.53614 9.76075 6.53613 10.3428L6.53809 10.6074C6.54361 10.8564 6.56072 11.0602 6.59766 11.2539C6.64702 11.5126 6.73 11.7492 6.86035 12.0508L6.94336 12.2324C7.14344 12.6466 7.39234 12.9875 7.75391 13.3525H7.75488C8.33126 13.925 8.93788 14.2705 9.73438 14.4795C9.9922 14.5465 10.3672 14.5786 10.7354 14.5801ZM10.7451 13.4902C10.5201 13.4902 10.3844 13.4856 10.2705 13.4717C10.1588 13.458 10.0643 13.434 9.9209 13.3906H9.91992C8.80702 13.0555 8.05181 12.2995 7.7168 11.1865C7.6733 11.0428 7.64946 10.9479 7.63574 10.8359C7.62182 10.7221 7.61719 10.5871 7.61719 10.3623C7.61719 10.1375 7.62181 10.0025 7.63574 9.88867C7.64946 9.7767 7.67329 9.68186 7.7168 9.53809C8.08899 8.29869 9.06164 7.4418 10.3135 7.24121H10.3125C10.636 7.19033 11.2151 7.2343 11.5742 7.33789C12.6666 7.65372 13.4382 8.42448 13.7734 9.53809C13.8169 9.68177 13.8408 9.77674 13.8545 9.88867C13.8684 10.0025 13.8721 10.1375 13.8721 10.3623C13.8721 10.587 13.8684 10.7221 13.8545 10.8359C13.8408 10.9479 13.8169 11.0429 13.7734 11.1865C13.4593 12.2302 12.7751 12.9601 11.7734 13.3232L11.5693 13.3906C11.4256 13.4341 11.3307 13.458 11.2188 13.4717C11.1049 13.4856 10.9699 13.4902 10.7451 13.4902Z" fill="white" stroke="white" stroke-width="0.231395"/>
</svg>
