<svg width="19" height="21" viewBox="0 0 19 21" fill="none" xmlns="http://www.w3.org/2000/svg">
<path d="M13.7752 3.87109H4.81967C4.47758 3.87109 4.2002 4.14848 4.2002 4.49057C4.2002 4.83266 4.47758 5.11005 4.81967 5.11005H13.7759C14.118 5.11005 14.3954 4.83266 14.3954 4.49057C14.3954 4.14848 14.1173 3.87109 13.7752 3.87109Z" fill="white"/>
<path d="M14.3947 7.98276C14.3947 7.64067 14.1173 7.36328 13.7752 7.36328H4.81967C4.47758 7.36328 4.2002 7.64067 4.2002 7.98276C4.2002 8.32485 4.47758 8.60224 4.81967 8.60224H13.7759C14.1173 8.60224 14.3947 8.32485 14.3947 7.98276Z" fill="white"/>
<path d="M4.81967 10.8555C4.47758 10.8555 4.2002 11.1329 4.2002 11.4749C4.2002 11.817 4.47758 12.0944 4.81967 12.0944H9.33084C9.67293 12.0944 9.95032 11.817 9.95032 11.4749C9.95032 11.1329 9.67293 10.8555 9.33084 10.8555H4.81967Z" fill="white"/>
<path d="M6.4287 19.3742H2.59552C2.0669 19.3742 1.63739 18.944 1.63739 18.4161V2.29864C1.63739 1.77002 2.06758 1.34052 2.59552 1.34052H16.001C16.5289 1.34052 16.9591 1.77071 16.9591 2.29864V8.18023C16.9591 8.52232 17.2365 8.79971 17.5786 8.79971C17.9207 8.79971 18.1981 8.52232 18.1981 8.18023V2.29864C18.1981 1.08722 17.2124 0.101562 16.0017 0.101562H2.59552C1.38409 0.101562 0.398438 1.08722 0.398438 2.29864V18.4161C0.398438 19.6275 1.38409 20.6131 2.59552 20.6131H6.4287C6.77079 20.6131 7.04818 20.3358 7.04818 19.9937C7.04818 19.6516 6.77079 19.3742 6.4287 19.3742Z" fill="white"/>
<path d="M18.236 10.9872C17.3371 10.0876 15.873 10.0876 14.9748 10.9872L9.27904 16.683C9.0987 16.8633 8.98031 17.0918 8.93764 17.3431L8.62652 19.1898C8.56044 19.5787 8.68778 19.9772 8.96655 20.256C9.19644 20.4866 9.50962 20.6139 9.83037 20.6139C9.89783 20.6139 9.96528 20.6084 10.0327 20.5967L11.8781 20.2849C12.13 20.2429 12.3592 20.1252 12.5396 19.9442L18.2353 14.2484C19.1349 13.3495 19.1349 11.8861 18.236 10.9872ZM11.6737 19.0631L9.84827 19.3956L10.1546 17.5585L14.2534 13.4596L15.7636 14.9698L11.6737 19.0631ZM17.3598 13.3722L16.6391 14.0935L15.129 12.5834L15.8503 11.8621C16.0582 11.6542 16.3321 11.5503 16.6054 11.5503C16.8786 11.5503 17.1519 11.6542 17.3605 11.8621C17.7762 12.2792 17.7762 12.9558 17.3598 13.3722Z" fill="white"/>
</svg>
