<svg width="29" height="28" viewBox="0 0 29 28" fill="none" xmlns="http://www.w3.org/2000/svg">
<g clip-path="url(#clip0_753_14654)">
<path d="M4.87878 24.0006H4.57145C4.48597 23.9588 4.39505 23.9255 4.31624 23.8739C3.99314 23.6642 3.8907 23.3296 4.02406 22.9125C4.41505 21.6892 4.80604 20.4665 5.20431 19.2463C5.24795 19.1123 5.23825 19.0087 5.17097 18.8886C4.57205 17.8157 4.19682 16.6651 4.04224 15.4485C3.77976 13.3778 4.09437 11.3925 5.10914 9.56422C6.90649 6.32656 9.68223 4.57649 13.3794 4.34977C15.1525 4.24126 16.8438 4.63165 18.4023 5.4888C21.1756 7.01398 22.8681 9.34174 23.4646 12.4557C23.5361 12.8304 23.5688 13.2129 23.6197 13.5911V14.7435C23.6088 14.7987 23.5906 14.8538 23.587 14.9096C23.4912 16.2947 23.1233 17.6071 22.4486 18.8177C20.9125 21.5747 18.5896 23.2623 15.4816 23.8485C15.1125 23.9182 14.7366 23.9509 14.3638 24.0006H13.1733C12.9399 23.9715 12.7053 23.9461 12.4725 23.9127C11.2595 23.7388 10.112 23.3678 9.03482 22.7779C8.95359 22.7331 8.82629 22.7258 8.73536 22.7525C8.22192 22.9065 7.71211 23.0744 7.20231 23.2399C6.42699 23.492 5.65228 23.7466 4.87757 24.0006H4.87878ZM5.92143 22.0317C6.01175 22.0057 6.07177 21.9899 6.13057 21.9711C6.86042 21.7371 7.60239 21.5334 8.31649 21.2588C8.85236 21.0527 9.28275 21.1333 9.7768 21.4116C11.562 22.4173 13.4806 22.7034 15.4871 22.2839C17.5736 21.8474 19.2479 20.7442 20.4967 19.0226C21.9261 17.0519 22.3855 14.8508 21.9012 12.4715C21.4769 10.3898 20.3712 8.72101 18.6587 7.47104C16.6916 6.03498 14.4875 5.5567 12.1131 6.05195C9.49795 6.59752 7.58542 8.11906 6.36395 10.4874C5.5753 12.0163 5.34131 13.6536 5.57954 15.3533C5.73594 16.4675 6.11117 17.5108 6.70099 18.4716C6.87133 18.7492 6.89861 19.025 6.79313 19.3311C6.62461 19.8203 6.47064 20.3144 6.31242 20.8072C6.18391 21.2061 6.05782 21.6056 5.92204 22.0323L5.92143 22.0317Z" fill="white"/>
<path d="M10.7369 14.1576C10.7414 14.7464 10.2765 15.2391 9.71859 15.237C9.16836 15.2357 8.70994 14.7539 8.70609 14.1732C8.70159 13.5843 9.16643 13.0917 9.72436 13.0938C10.2746 13.0951 10.733 13.5769 10.7369 14.1576Z" fill="white"/>
<path d="M13.798 13.0938C14.356 13.0992 14.8157 13.5972 14.8047 14.1854C14.7938 14.7661 14.3309 15.2425 13.7813 15.2377C13.2234 15.2323 12.7637 14.7343 12.7746 14.1461C12.7855 13.5654 13.2484 13.089 13.798 13.0938Z" fill="white"/>
<path d="M18.8697 14.1713C18.8664 14.7601 18.3958 15.2466 17.8392 15.2378C17.2889 15.2283 16.8363 14.7411 16.8389 14.1604C16.8421 13.5716 17.3127 13.0851 17.8694 13.0939C18.4196 13.1034 18.8722 13.5906 18.8697 14.1713Z" fill="white"/>
</g>
<defs>
<clipPath id="clip0_753_14654">
<rect width="20.8256" height="21.9825" fill="white" transform="translate(3.37402 3.17578)"/>
</clipPath>
</defs>
</svg>
