<svg width="19" height="23" viewBox="0 0 19 23" fill="none" xmlns="http://www.w3.org/2000/svg">
<g clip-path="url(#clip0_753_14663)">
<path d="M8.95703 22.1578C8.59956 22.1043 8.24009 22.0621 7.88529 21.9958C5.6858 21.5821 3.86245 20.509 2.43925 18.7813C0.926677 16.9464 0.234418 14.8169 0.326452 12.4411C0.482511 8.42795 3.30224 4.91615 7.17236 3.90332C7.60452 3.79018 8.05135 3.73127 8.49085 3.64693C8.55954 3.63354 8.62757 3.62015 8.70426 3.60542V1.89237C8.42949 1.89237 8.15406 1.89906 7.87929 1.89036C7.53716 1.87965 7.27906 1.71698 7.12634 1.40971C6.98095 1.11717 7.00563 0.825304 7.18703 0.554856C7.34909 0.313194 7.58184 0.181318 7.87195 0.179979C9.00504 0.175293 10.1388 0.173285 11.2719 0.180648C11.7407 0.183996 12.1109 0.578286 12.1069 1.04019C12.1029 1.49473 11.7421 1.87362 11.2826 1.89036C11.0058 1.9004 10.7284 1.89237 10.4369 1.89237V3.6168C12.3223 3.80558 14.0029 4.50044 15.4988 5.73285C15.7823 5.43964 16.0577 5.14242 16.3471 4.85925C16.5979 4.61357 16.902 4.54061 17.2348 4.66177C17.5569 4.77892 17.745 5.02125 17.793 5.36065C17.8344 5.64984 17.729 5.89485 17.5256 6.09836C17.2528 6.37081 16.9774 6.64059 16.7079 6.90702C16.988 7.32206 17.2761 7.71033 17.5249 8.12336C20.7241 13.4413 17.757 20.4983 11.7307 21.8981C11.2679 22.0059 10.7904 22.0494 10.3195 22.1237C10.2642 22.1324 10.2095 22.1478 10.1541 22.1598H8.95636L8.95703 22.1578ZM9.56992 20.4414C13.7201 20.4441 17.1068 17.0555 17.1208 12.8856C17.1348 8.71848 13.7475 5.30375 9.58459 5.29103C5.43237 5.27764 2.03109 8.68434 2.02709 12.8602C2.02309 17.0374 5.40703 20.4388 9.56992 20.4414Z" fill="white"/>
<path d="M14.5618 13.8028C14.4371 13.841 14.2263 13.9602 14.0136 13.9635C12.439 13.9856 10.8644 13.9889 9.29049 13.9876C8.79631 13.9876 8.42884 13.6121 8.42484 13.1388C8.42084 12.6575 8.79231 12.2799 9.2985 12.2766C10.8658 12.2652 12.433 12.2605 14.0009 12.2578C14.3931 12.2578 14.6879 12.46 14.8166 12.8041C14.944 13.1455 14.8653 13.4487 14.5618 13.8028Z" fill="white"/>
</g>
<defs>
<clipPath id="clip0_753_14663">
<rect width="18.5116" height="21.9825" fill="white" transform="translate(0.318359 0.175781)"/>
</clipPath>
</defs>
</svg>
