<svg width="28" height="28" viewBox="0 0 28 28" fill="none" xmlns="http://www.w3.org/2000/svg">
<path d="M7.54421 3.58157C6.89903 3.69678 6.1348 4.01937 5.60483 4.39573C4.54489 5.14844 3.80754 6.31207 3.5848 7.57555C3.49647 8.07479 3.49647 18.6281 3.5848 19.1273C3.70385 19.8148 4.00724 20.5521 4.39896 21.1051C4.64858 21.4584 5.20543 22.0191 5.55491 22.2726C6.12328 22.6835 6.88751 23.0023 7.57493 23.1252C8.08186 23.2135 18.6275 23.2135 19.1344 23.1252C20.1483 22.9485 21.0392 22.48 21.7766 21.7349C22.5063 20.9938 22.9594 20.1258 23.1322 19.1235C23.2206 18.6281 23.2167 8.07095 23.1322 7.57555C22.9517 6.55017 22.4755 5.65153 21.719 4.91418C21.1352 4.3458 20.5361 3.98097 19.8218 3.75055C19.0768 3.51245 19.3264 3.52012 13.324 3.52397C8.75777 3.52781 7.79768 3.53549 7.54421 3.58157ZM19.1306 5.29821C20.2904 5.65921 21.0508 6.4196 21.4118 7.57938L21.5193 7.91734V13.3514V18.7856L21.4118 19.1235C21.0508 20.2833 20.2904 21.0437 19.1306 21.4047L18.7926 21.5122H13.3585H7.92441L7.58646 21.4047C6.42667 21.0437 5.66628 20.2833 5.30528 19.1235L5.19775 18.7856V13.3514V7.91734L5.30528 7.57938C5.70852 6.28902 6.71853 5.39806 7.99353 5.20988C8.1049 5.19452 10.5781 5.183 13.4929 5.18684L18.7926 5.19068L19.1306 5.29821Z" fill="white"/>
<path d="M12.975 8.51111C12.783 8.61096 12.6409 8.77226 12.5717 8.96811C12.5218 9.11021 12.5141 9.40208 12.5141 10.8192V12.5051H10.8282C8.98869 12.5051 8.92724 12.5128 8.70066 12.7278C8.52401 12.8968 8.44336 13.0888 8.44336 13.35C8.44336 13.6303 8.53169 13.83 8.73139 13.9951C8.96949 14.1872 9.03477 14.1948 10.8397 14.1948H12.5141V15.8808C12.5141 17.7203 12.5218 17.7817 12.7369 18.0083C12.9059 18.185 13.0979 18.2656 13.359 18.2656C13.6394 18.2656 13.8391 18.1773 14.0042 17.9776C14.1962 17.7395 14.2039 17.6742 14.2039 15.8692V14.1948H15.8783C17.6833 14.1948 17.7485 14.1872 17.9867 13.9951C18.3668 13.6802 18.3822 13.0735 18.0174 12.7278C17.7908 12.5128 17.7293 12.5051 15.8898 12.5051H14.2039V10.8307C14.2039 9.68626 14.1885 9.10637 14.1617 9.00652C14.104 8.8145 13.9236 8.60328 13.7392 8.51111C13.5434 8.41126 13.1632 8.41126 12.975 8.51111Z" fill="white"/>
</svg>
