<svg width="26" height="22" viewBox="0 0 26 22" fill="none" xmlns="http://www.w3.org/2000/svg">
<path d="M9.7166 0.18295C8.90646 0.303506 8.39048 0.867711 8.28439 1.75019C8.17347 2.68088 8.42423 3.10524 9.01255 2.97504C9.34528 2.90271 9.4562 2.67606 9.4562 2.0781C9.4562 1.88521 9.48031 1.67303 9.51406 1.60552C9.63462 1.33547 9.5864 1.34029 12.7787 1.34029C14.9584 1.34029 15.7541 1.35476 15.8457 1.39816C16.0386 1.48496 16.1109 1.67303 16.1157 2.09739C16.1157 2.54104 16.1833 2.76768 16.3569 2.89306C16.5112 3.0088 16.8873 3.01844 17.0513 2.91235C17.2586 2.77733 17.2924 2.65677 17.2876 2.06363C17.2827 1.59105 17.2683 1.46567 17.1622 1.21009C16.9693 0.732688 16.7234 0.486753 16.2411 0.284217L15.9421 0.158838L12.9523 0.149194C11.3079 0.149194 9.85162 0.158838 9.7166 0.18295Z" fill="#A0A3BD"/>
<path d="M1.62023 4.15696C1.16694 4.29681 0.848672 4.56203 0.626848 4.9671L0.462891 5.27091V7.58559V9.90028L0.573803 10.1125C0.752227 10.4452 1.08496 10.7683 1.39359 10.9033C1.56719 10.9805 3.25498 11.3807 6.08083 12.0076L10.4932 12.9914L10.5173 13.9992C10.5414 15.1035 10.5607 15.1758 10.8308 15.2868C11.0381 15.3784 14.5294 15.3784 14.7368 15.2868C15.0068 15.1758 15.0261 15.1035 15.0502 13.9992L15.0744 12.9914L19.4867 12.0076C22.3126 11.3807 24.0004 10.9805 24.174 10.9033C24.4826 10.7683 24.8153 10.4452 24.9938 10.1125L25.1047 9.90028V7.58559V5.27091L24.9407 4.9671C24.7575 4.62955 24.4971 4.38843 24.1354 4.22447L23.8991 4.11356L12.8561 4.10392C4.07477 4.0991 1.77455 4.10874 1.62023 4.15696ZM23.6532 5.31431C23.9811 5.44933 23.9714 5.39146 23.9714 7.59042V9.57719L23.8509 9.72186C23.7785 9.80866 23.6532 9.88581 23.5278 9.91475C23.2722 9.98226 15.1178 11.8051 15.084 11.8051C15.0695 11.8051 15.0502 11.6508 15.0406 11.4627C15.0261 11.1492 15.0117 11.1058 14.867 10.9805L14.7127 10.8406H12.7838H10.8549L10.7006 10.9805C10.5559 11.1058 10.5414 11.1492 10.527 11.4627C10.5173 11.6508 10.498 11.8051 10.4836 11.8051C10.4498 11.8051 2.29535 9.98226 2.03977 9.91475C1.91439 9.88581 1.78901 9.80866 1.71668 9.72186L1.59612 9.57719V7.60488C1.59612 5.4204 1.5913 5.45415 1.90957 5.31431C2.13139 5.21786 23.4169 5.21786 23.6532 5.31431ZM13.8929 13.083V14.168H12.7838H11.6747V13.083V11.998H12.7838H13.8929V13.083Z" fill="#A0A3BD"/>
<path d="M1.22518 12.0466C1.12391 12.1092 1.0564 12.196 1.02264 12.3214C0.950308 12.5674 0.950308 19.7911 1.01782 20.1528C1.15767 20.8761 1.67365 21.3728 2.4211 21.4982C2.85028 21.5657 22.718 21.5657 23.1472 21.4982C23.8946 21.3728 24.4106 20.8761 24.5505 20.1528C24.618 19.7911 24.618 12.5674 24.5457 12.3214C24.483 12.09 24.2708 11.9501 23.9815 11.9501C23.803 11.9501 23.7403 11.979 23.6053 12.1141L23.4414 12.278V16.0056C23.4414 18.1178 23.4221 19.82 23.3931 19.931C23.369 20.0467 23.2967 20.1672 23.2147 20.2299L23.0797 20.3409H12.7841H2.48861L2.35359 20.2299C2.27161 20.1672 2.19928 20.0467 2.17516 19.931C2.14623 19.82 2.12694 18.1178 2.12694 16.0056V12.278L1.96298 12.1141C1.82796 11.979 1.76527 11.9501 1.59167 11.9501C1.46629 11.9501 1.3168 11.9887 1.22518 12.0466Z" fill="#A0A3BD"/>
</svg>
