<svg width="46" height="44" viewBox="0 0 46 44" fill="none" xmlns="http://www.w3.org/2000/svg">
<path d="M32.9668 3.90703H32.3068V3.12313C32.3068 2.47271 31.7515 1.94531 31.0666 1.94531C30.3817 1.94531 29.8264 2.47271 29.8264 3.12313V3.90703H14.0304V3.12313C14.0304 2.47271 13.4751 1.94531 12.7903 1.94531C12.1054 1.94531 11.5501 2.47271 11.5501 3.12313V3.90703H10.8941C6.22549 3.90703 2.42773 7.51375 2.42773 11.9476V32.9048C2.42773 37.3386 6.22549 40.9453 10.8941 40.9453H32.9613C37.63 40.9453 41.4277 37.3386 41.4277 32.9048V11.9423C41.4264 7.51244 37.6314 3.90703 32.9668 3.90703ZM10.8941 6.26265H11.5501V7.04655C11.5501 7.69697 12.1054 8.22436 12.7903 8.22436C13.4751 8.22436 14.0304 7.69697 14.0304 7.04655V6.26265H29.8236V7.04655C29.8236 7.69697 30.379 8.22436 31.0638 8.22436C31.7487 8.22436 32.304 7.69697 32.304 7.04655V6.26265H32.9641C36.2616 6.26265 38.9432 8.81065 38.9432 11.9423V14.701H4.90675V11.9476C4.90812 8.81327 7.59384 6.26265 10.8941 6.26265ZM32.9613 38.5884H10.8941C7.59384 38.5884 4.90812 36.0378 4.90812 32.9035V17.0567H38.9446V32.9035C38.946 36.0378 36.2603 38.5884 32.9613 38.5884Z" fill="white"/>
<path d="M21.9287 20.5391C21.2438 20.5391 20.6885 21.0665 20.6885 21.7169V28.5194C20.6885 29.1698 21.2438 29.6972 21.9287 29.6972C22.6135 29.6972 23.1689 29.1698 23.1689 28.5194V21.7169C23.1689 21.0652 22.6135 20.5391 21.9287 20.5391Z" fill="white"/>
<path d="M21.9287 31.8125C21.2438 31.8125 20.6885 32.3399 20.6885 32.9903V33.9273C20.6885 34.5777 21.2438 35.1051 21.9287 35.1051C22.6135 35.1051 23.1689 34.5777 23.1689 33.9273V32.9903C23.1689 32.3399 22.6135 31.8125 21.9287 31.8125Z" fill="white"/>
</svg>
