<svg width="25" height="22" viewBox="0 0 25 22" fill="none" xmlns="http://www.w3.org/2000/svg">
<path d="M2.02136 0.695202C1.49048 0.893076 1.04165 1.31778 0.790689 1.85831L0.679688 2.09962V11.197V20.2943L0.843777 20.6225C1.11404 21.1582 1.5677 21.5539 2.12754 21.7373C2.35437 21.8097 3.23756 21.8145 12.914 21.8049L23.4592 21.7904L23.7874 21.6263C24.3231 21.356 24.7188 20.9024 24.9022 20.3425C24.9746 20.1157 24.9795 19.3435 24.9698 11.1004L24.9553 2.09962L24.8009 1.78109C24.5934 1.36121 24.1976 0.965467 23.7777 0.757942L23.4592 0.603504L12.8899 0.593853L2.32059 0.5842L2.02136 0.695202ZM23.2662 1.86314C23.4882 1.98379 23.5799 2.08031 23.7054 2.3168C23.7874 2.46641 23.7971 2.6305 23.8115 3.84669L23.8308 5.2125H12.8175H1.80419L1.82349 3.84669C1.83797 2.6305 1.84762 2.46641 1.92967 2.3168C2.09858 1.99827 2.29163 1.85348 2.63429 1.78109C2.72598 1.76179 7.36394 1.75213 12.9382 1.75696L23.0731 1.76179L23.2662 1.86314ZM23.8115 13.1371C23.7971 19.6476 23.7922 19.913 23.7054 20.0771C23.5799 20.3136 23.4882 20.4101 23.2662 20.5308L23.0731 20.6321H12.8175C2.89007 20.6321 2.55707 20.6273 2.39298 20.5404C2.1565 20.4149 2.05997 20.3232 1.93932 20.1012L1.83797 19.9082L1.82349 13.1371L1.81384 6.37078H12.8175H23.8212L23.8115 13.1371Z" fill="#FFB743"/>
<path d="M16.2637 3.0605C16.1189 3.20528 16.0996 3.25354 16.0996 3.47555C16.0996 3.69755 16.1189 3.74581 16.2637 3.8906C16.4085 4.03538 16.4567 4.05469 16.6691 4.05469C16.8573 4.05469 16.9442 4.02573 17.06 3.93403C17.2531 3.76994 17.3303 3.52863 17.2579 3.30663C17.171 3.04602 16.9587 2.89641 16.6691 2.89641C16.4567 2.89641 16.4085 2.91571 16.2637 3.0605Z" fill="#FFB743"/>
<path d="M18.5801 3.0605C18.4353 3.20528 18.416 3.25354 18.416 3.47555C18.416 3.69755 18.4353 3.74581 18.5801 3.8906C18.7249 4.03538 18.7732 4.05469 18.9855 4.05469C19.1737 4.05469 19.2606 4.02573 19.3764 3.93403C19.5695 3.76994 19.6467 3.52863 19.5743 3.30663C19.4874 3.04602 19.2751 2.89641 18.9855 2.89641C18.7732 2.89641 18.7249 2.91571 18.5801 3.0605Z" fill="#FFB743"/>
<path d="M20.8965 3.0605C20.7517 3.20528 20.7324 3.25354 20.7324 3.47555C20.7324 3.69755 20.7517 3.74581 20.8965 3.8906C21.0413 4.03538 21.0896 4.05469 21.3019 4.05469C21.4901 4.05469 21.577 4.02573 21.6928 3.93403C21.8859 3.76994 21.9631 3.52863 21.8907 3.30663C21.8038 3.04602 21.5915 2.89641 21.3019 2.89641C21.0896 2.89641 21.0413 2.91571 20.8965 3.0605Z" fill="#FFB743"/>
<path d="M5.88269 10.7346C5.35181 10.9325 4.90298 11.3572 4.65202 11.8977C4.54584 12.1342 4.54102 12.1776 4.54102 13.5145V14.8899L4.69545 15.2036C4.95124 15.7297 5.40007 16.1302 5.95508 16.3185C6.18674 16.4005 6.36531 16.4102 7.33054 16.4102H8.43574L8.59983 16.2461C8.74461 16.1013 8.76392 16.053 8.76392 15.8358C8.76392 15.6331 8.73979 15.5656 8.62396 15.4353L8.484 15.276L7.4512 15.2519C6.58249 15.2277 6.39909 15.2084 6.25431 15.136C6.01782 15.0106 5.9213 14.9189 5.80065 14.6969C5.70895 14.5183 5.6993 14.4314 5.6993 13.5145C5.6993 12.5975 5.70895 12.5106 5.80065 12.332C5.9213 12.11 6.01782 12.0183 6.25431 11.8929C6.39909 11.8205 6.58249 11.8012 7.4512 11.777L8.484 11.7529L8.62396 11.5936C8.73979 11.4633 8.76392 11.3958 8.76392 11.1931C8.76392 10.9759 8.74461 10.9276 8.59983 10.7828L8.43574 10.6188L7.31124 10.6236C6.25431 10.6236 6.16261 10.6332 5.88269 10.7346Z" fill="#FFB743"/>
<path d="M10.086 10.7828L9.92188 10.9469V13.5145V16.082L10.086 16.2461C10.2307 16.3909 10.279 16.4102 10.501 16.4102C10.723 16.4102 10.7713 16.3909 10.9161 16.2461L11.0802 16.082V15.0878V14.0936H11.5628H12.0454L12.5714 15.1505C12.9044 15.8165 13.1506 16.2461 13.2326 16.3088C13.3243 16.3812 13.4305 16.4102 13.5994 16.4102C13.8069 16.4102 13.86 16.3909 14.0048 16.2461C14.2847 15.9661 14.251 15.8021 13.7297 14.7596L13.2905 13.8812L13.4257 13.7847C13.6815 13.6062 13.8938 13.3504 14.0338 13.056C14.1496 12.8098 14.1689 12.7037 14.1689 12.3707C14.1689 11.806 14.0434 11.5019 13.667 11.1207C13.1892 10.6429 13.083 10.6188 11.5338 10.6188H10.2501L10.086 10.7828ZM12.5377 11.8253C12.6342 11.8542 12.7693 11.9411 12.8369 12.0232C13.0927 12.3224 12.9334 12.776 12.5377 12.8871C12.4411 12.9112 12.0695 12.9353 11.722 12.9353H11.0802V12.3562V11.777H11.722C12.0695 11.777 12.4411 11.8012 12.5377 11.8253Z" fill="#FFB743"/>
<path d="M15.4912 10.7828L15.3271 10.9469V13.5145V16.082L15.4912 16.2461C15.636 16.3909 15.6843 16.4102 15.9063 16.4102C16.1283 16.4102 16.1766 16.3909 16.3213 16.2461L16.4854 16.082V14.3542V12.6264L17.2238 13.36L17.9622 14.0936H18.2229H18.4835L19.2219 13.36L19.9603 12.6264V14.3542V16.082L20.1244 16.2461C20.2691 16.3909 20.3174 16.4102 20.5394 16.4102C20.7614 16.4102 20.8097 16.3909 20.9545 16.2461L21.1186 16.082V13.5145V10.9469L20.9545 10.7828C20.8097 10.6381 20.7614 10.6188 20.5346 10.6188H20.2788L19.2508 11.6419L18.2229 12.665L17.1949 11.6419L16.1669 10.6188H15.9111C15.6843 10.6188 15.636 10.6381 15.4912 10.7828Z" fill="#FFB743"/>
</svg>
