<svg width="115" height="101" viewBox="0 0 115 101" fill="none" xmlns="http://www.w3.org/2000/svg">
<rect x="0.628906" y="0.155273" width="114" height="100.588" rx="10.7294" fill="#121723"/>
<rect x="1.29949" y="0.825862" width="112.659" height="99.2471" rx="10.0588" stroke="white" stroke-opacity="0.2" stroke-width="1.34118"/>
<path d="M47.0763 25.7361L40.1226 21.7217V29.7505L47.0763 25.7361ZM26.2151 26.4314H40.818V25.0407H26.2151V26.4314ZM22.7383 28.5176V35.4713H24.129V28.5176H22.7383ZM26.2151 25.0407C25.293 25.0407 24.4087 25.407 23.7566 26.059C23.1046 26.7111 22.7383 27.5954 22.7383 28.5176H24.129C24.129 27.9643 24.3488 27.4337 24.74 27.0424C25.1313 26.6512 25.6619 26.4314 26.2151 26.4314V25.0407Z" fill="white" fill-opacity="0.25"/>
<path d="M92.2741 39.6434L96.2892 32.6897H88.259L92.2741 39.6434ZM91.5787 27.8221V33.3851H92.9694V27.8221H91.5787ZM89.4926 24.3452H73.499V25.736H89.4926V24.3452ZM92.9694 27.8221C92.9694 26.9 92.6031 26.0156 91.9511 25.3636C91.2991 24.7115 90.4147 24.3452 89.4926 24.3452V25.736C90.0459 25.736 90.5765 25.9557 90.9677 26.347C91.3589 26.7382 91.5787 27.2688 91.5787 27.8221H92.9694Z" fill="white" fill-opacity="0.25"/>
<path d="M92.2741 60.5044L96.2892 67.4581H88.259L92.2741 60.5044ZM91.5787 72.3257V66.7627H92.9694V72.3257H91.5787ZM89.4926 75.8026H73.499V74.4118H89.4926V75.8026ZM92.9694 72.3257C92.9694 73.2478 92.6031 74.1322 91.9511 74.7842C91.2991 75.4363 90.4147 75.8026 89.4926 75.8026V74.4118C90.0459 74.4118 90.5765 74.1921 90.9677 73.8008C91.3589 73.4096 91.5787 72.879 91.5787 72.3257H92.9694Z" fill="white" fill-opacity="0.25"/>
<path d="M69.327 13.5669H51.2473C49.9031 13.5669 48.8135 14.6565 48.8135 16.0007V34.0804C48.8135 35.4245 49.9031 36.5142 51.2473 36.5142H69.327C70.6711 36.5142 71.7608 35.4245 71.7608 34.0804V16.0007C71.7608 14.6565 70.6711 13.5669 69.327 13.5669Z" fill="white" fill-opacity="0.25"/>
<path d="M97.8376 42.0771H86.7116C82.2951 42.0771 78.7148 45.6574 78.7148 50.0739C78.7148 54.4904 82.2951 58.0707 86.7116 58.0707H97.8376C102.254 58.0707 105.834 54.4904 105.834 50.0739C105.834 45.6574 102.254 42.0771 97.8376 42.0771Z" fill="white" fill-opacity="0.25"/>
<path d="M47.0763 74.412L40.1226 70.3969V78.4271L47.0763 74.412ZM26.2151 75.1073H40.818V73.7166H26.2151V75.1073ZM24.129 71.6305V64.6768H22.7383V71.6305H24.129ZM26.2151 73.7166C25.6619 73.7166 25.1313 73.4968 24.74 73.1056C24.3488 72.7144 24.129 72.1838 24.129 71.6305H22.7383C22.7383 72.5526 23.1046 73.437 23.7566 74.089C24.4087 74.741 25.293 75.1073 26.2151 75.1073V73.7166Z" fill="white" fill-opacity="0.25"/>
<path d="M69.327 63.6338H51.2473C49.9031 63.6338 48.8135 64.7234 48.8135 66.0676V84.1473C48.8135 85.4914 49.9031 86.5811 51.2473 86.5811H69.327C70.6711 86.5811 71.7608 85.4914 71.7608 84.1473V66.0676C71.7608 64.7234 70.6711 63.6338 69.327 63.6338Z" fill="white" fill-opacity="0.25"/>
<path d="M35.1273 48.3529L25.1536 38.3792C24.2031 37.4287 22.6621 37.4287 21.7117 38.3792L11.738 48.3529C10.7875 49.3033 10.7875 50.8443 11.738 51.7948L21.7117 61.7685C22.6621 62.7189 24.2031 62.7189 25.1536 61.7685L35.1273 51.7948C36.0777 50.8443 36.0777 49.3033 35.1273 48.3529Z" fill="white" fill-opacity="0.25"/>
</svg>
