<svg width="134" height="92" viewBox="0 0 134 92" fill="none" xmlns="http://www.w3.org/2000/svg">
<path d="M98.3946 69.8628L93.2098 66.8691V72.856L98.3946 69.8628ZM35.5352 70.3813H93.7282V69.3444H35.5352V70.3813Z" fill="#3DC3B9"/>
<path d="M78.2208 53.9725L73.036 56.9657V50.9788L78.2208 53.9725ZM42.4971 44.7539L45.4903 49.9387H39.5039L42.4971 44.7539ZM44.571 53.454H73.5545V54.4909H44.571V53.454ZM41.9786 51.8986V49.4202H43.0156V51.8986H41.9786ZM44.571 54.4909C43.8835 54.4909 43.2241 54.2178 42.7379 53.7317C42.2517 53.2455 41.9786 52.5861 41.9786 51.8986H43.0156C43.0156 52.3111 43.1794 52.7067 43.4711 52.9984C43.7628 53.2901 44.1585 53.454 44.571 53.454V54.4909Z" fill="#FF7A70"/>
<path d="M42.4976 31.7992L39.5039 26.6144H45.4908L42.4976 31.7992ZM43.0161 20.963V27.1329H41.9791V20.963H43.0161ZM44.5715 18.3706H74.5578V19.4076H44.5715V18.3706ZM41.9791 20.963C41.9791 20.2755 42.2523 19.6161 42.7384 19.1299C43.2246 18.6437 43.884 18.3706 44.5715 18.3706V19.4076C44.159 19.4076 43.7634 19.5714 43.4717 19.8631C43.18 20.1548 43.0161 20.5505 43.0161 20.963H41.9791Z" fill="#3DC3B9"/>
<path d="M24.3916 58.5296L21.3984 53.3448H27.3853L24.3916 58.5296ZM26.4655 18.3702H74.5581V19.4072H26.4655V18.3702ZM24.9101 20.9668V55.807H23.8731V20.9668H24.9101ZM26.4655 19.4072C25.608 19.4072 24.9101 20.1066 24.9101 20.9668H23.8731C23.8729 20.2787 24.1458 19.6188 24.6319 19.1319C25.118 18.645 25.7775 18.371 26.4655 18.3702V19.4072ZM96.7713 18.8887L101.956 15.8955V21.8824L96.7713 18.8887ZM107.523 19.4072H101.438V18.3702H107.523V19.4072ZM110.115 20.9626V58.5296H109.078V20.9626H110.115ZM107.523 18.3702C108.211 18.3702 108.87 18.6433 109.356 19.1295C109.842 19.6157 110.115 20.2751 110.115 20.9626H109.078C109.078 20.5501 108.915 20.1544 108.623 19.8627C108.331 19.571 107.936 19.4072 107.523 19.4072V18.3702Z" fill="#3DC3B9"/>
<path d="M34.0364 43.3872H50.6277C51.6299 43.3872 52.4424 42.5747 52.4424 41.5725V33.2769C52.4424 32.2746 51.6299 31.4622 50.6277 31.4622H34.0364C33.0341 31.4622 32.2217 32.2746 32.2217 33.2769V41.5725C32.2217 42.5747 33.0341 43.3872 34.0364 43.3872Z" fill="#FF7A70" stroke="#D33D44" stroke-width="0.518479"/>
<path d="M82.4407 59.79H99.032C100.034 59.79 100.847 58.9776 100.847 57.9754V49.6797C100.847 48.6775 100.034 47.865 99.032 47.865H82.4407C81.4384 47.865 80.626 48.6775 80.626 49.6797V57.9754C80.626 58.9776 81.4384 59.79 82.4407 59.79Z" fill="#FF7A70" stroke="#D33D44" stroke-width="0.518479"/>
<path d="M54.0654 36.2002L59.2502 39.1939V33.207L54.0654 36.2002ZM90.7364 46.4905L93.7296 41.3057H87.7427L90.7364 46.4905ZM88.6625 35.6823H58.7317V36.7192H88.6625V35.6823ZM90.218 38.2747V41.8242H91.2549V38.2747H90.218ZM88.6625 36.7192C89.0751 36.7192 89.4707 36.8831 89.7624 37.1748C90.0541 37.4665 90.218 37.8621 90.218 38.2747H91.2549C91.2549 37.5871 90.9818 36.9277 90.4956 36.4416C90.0095 35.9554 89.3501 35.6823 88.6625 35.6823V36.7192Z" fill="#FF7A70"/>
<path d="M100.264 69.641C100.264 74.7953 104.443 78.9736 109.597 78.9736C114.751 78.9736 118.93 74.7953 118.93 69.641C118.93 64.4867 114.751 60.3084 109.597 60.3084C104.443 60.3084 100.264 64.4867 100.264 69.641Z" fill="#EBC2FF" stroke="#8C81FF" stroke-width="0.518479"/>
<path d="M76.4177 18.8886C76.4177 24.0428 80.5961 28.2212 85.7504 28.2212C90.9046 28.2212 95.083 24.0428 95.083 18.8886C95.083 13.7343 90.9046 9.55593 85.7504 9.55593C80.5961 9.55593 76.4177 13.7343 76.4177 18.8886Z" fill="#EBC2FF" stroke="#8C81FF" stroke-width="0.518479"/>
<path d="M15.0584 69.641C15.0584 74.7953 19.2367 78.9736 24.391 78.9736C29.5453 78.9736 33.7236 74.7953 33.7236 69.641C33.7236 64.4867 29.5453 60.3084 24.391 60.3084C19.2367 60.3084 15.0584 64.4867 15.0584 69.641Z" fill="#EBC2FF" stroke="#8C81FF" stroke-width="0.518479"/>
</svg>
