<svg width="134" height="92" viewBox="0 0 134 92" fill="none" xmlns="http://www.w3.org/2000/svg">
<path d="M32.2559 20.7393L37.4407 17.7461V23.733L32.2559 20.7393ZM112.788 53.922H114.042V54.9589H112.788V53.922ZM116.551 53.922H117.805V54.9589H116.551V53.922ZM117.805 53.922C118.017 53.922 118.218 53.88 118.4 53.8043L118.797 54.7619C118.483 54.8921 118.145 54.9591 117.805 54.9589V53.922ZM119.243 52.9617C119.318 52.7792 119.36 52.5786 119.36 52.3665H120.397C120.397 52.717 120.327 53.0525 120.2 53.3589L119.243 52.9617ZM119.36 52.3665V51.1351H120.397V52.3665H119.36ZM119.36 48.6724V46.2096H120.397V48.6724H119.36ZM119.36 43.7468V41.284H120.397V43.7468H119.36ZM119.36 38.8212V36.3585H120.397V38.8212H119.36ZM119.36 33.8957V31.4329H120.397V33.8957H119.36ZM119.36 28.9701V26.5074H120.397V28.9701H119.36ZM119.36 24.0446V22.8132H120.397V24.0446H119.36ZM119.36 22.8132C119.361 22.609 119.321 22.4067 119.243 22.218L120.2 21.8208C120.327 22.1267 120.397 22.4627 120.397 22.8132H119.36ZM118.4 21.3754C118.211 21.2975 118.009 21.2575 117.805 21.2578V20.2208C118.155 20.2208 118.491 20.2908 118.797 20.4178L118.4 21.3754ZM117.805 21.2578H116.547V20.2208H117.805V21.2578ZM114.031 21.2578H111.515V20.2208H114.031V21.2578ZM108.999 21.2578H106.482V20.2208H108.999V21.2578ZM103.966 21.2578H101.45V20.2208H103.966V21.2578ZM98.9339 21.2578H96.4177V20.2208H98.9339V21.2578ZM93.9015 21.2578H91.3853V20.2208H93.9015V21.2578ZM88.8691 21.2578H86.353V20.2208H88.8691V21.2578ZM83.8368 21.2578H81.3206V20.2208H83.8368V21.2578ZM78.8044 21.2578H76.2882V20.2208H78.8044V21.2578ZM73.7726 21.2578H71.2564V20.2208H73.7726V21.2578ZM68.7402 21.2578H66.224V20.2208H68.7402V21.2578ZM63.7079 21.2578H61.1917V20.2208H63.7079V21.2578ZM58.6755 21.2578H56.1593V20.2208H58.6755V21.2578ZM53.6431 21.2578H51.127V20.2208H53.6431V21.2578ZM48.6108 21.2578H46.0946V20.2208H48.6108V21.2578ZM43.5784 21.2578H41.0622V20.2208H43.5784V21.2578ZM38.5461 21.2578H36.0304V20.2208H38.5466L38.5461 21.2578Z" fill="#48C2F7"/>
<path d="M66.9944 36.812L61.8096 33.8188V39.8052L66.9944 36.812ZM51.4401 37.3305H62.3281V36.2936H51.4401V37.3305ZM48.8477 38.8859V44.0707H49.8846V38.8859H48.8477ZM51.4401 36.2936C50.7525 36.2936 50.0931 36.5667 49.6069 37.0528C49.1208 37.539 48.8477 38.1984 48.8477 38.8859H49.8846C49.8846 38.4734 50.0485 38.0778 50.3402 37.7861C50.6319 37.4944 51.0275 37.3305 51.4401 37.3305V36.2936Z" fill="#87909E"/>
<path d="M66.9944 36.812L61.8096 33.8188V39.8052L66.9944 36.812ZM51.4401 37.3305H62.3281V36.2936H51.4401V37.3305ZM48.8477 38.8859V44.0707H49.8846V38.8859H48.8477ZM51.4401 36.2936C50.7525 36.2936 50.0931 36.5667 49.6069 37.0528C49.1208 37.539 48.8477 38.1984 48.8477 38.8859H49.8846C49.8846 38.4734 50.0485 38.0778 50.3402 37.7861C50.6319 37.4944 51.0275 37.3305 51.4401 37.3305V36.2936Z" fill="#FF7A70"/>
<path d="M100.695 47.1819L103.689 41.9971H97.7015L100.695 47.1819ZM100.177 38.3678V42.5156H101.214V38.3678H100.177ZM98.6213 35.7754H86.6963V36.8123H98.6213V35.7754ZM101.214 38.3678C101.214 37.6802 100.941 37.0209 100.454 36.5347C99.9683 36.0485 99.3089 35.7754 98.6213 35.7754V36.8123C99.0338 36.8123 99.4295 36.9762 99.7212 37.2679C100.013 37.5596 100.177 37.9553 100.177 38.3678H101.214Z" fill="#FFB34B"/>
<path d="M100.695 62.7363L103.689 67.9211H97.7015L100.695 62.7363ZM100.177 71.5505V67.4026H101.214V71.5505H100.177ZM98.6213 74.1429H86.6963V73.1059H98.6213V74.1429ZM101.214 71.5505C101.214 72.238 100.941 72.8974 100.454 73.3836C99.9683 73.8698 99.3089 74.1429 98.6213 74.1429V73.1059C99.0338 73.1059 99.4295 72.942 99.7212 72.6503C100.013 72.3586 100.177 71.963 100.177 71.5505H101.214Z" fill="#FF91E0"/>
<path d="M38.9964 54.4405L33.8116 57.4342V51.4474L38.9964 54.4405ZM23.442 53.9221H34.3301V54.959H23.442V53.9221ZM20.8496 52.3666V31.6274H21.8866V52.3666H20.8496ZM23.442 54.959C22.7545 54.959 22.0951 54.6859 21.6089 54.1997C21.1227 53.7136 20.8496 53.0542 20.8496 52.3666H21.8866C21.8866 52.7791 22.0504 53.1748 22.3421 53.4665C22.6338 53.7582 23.0295 53.9221 23.442 53.9221V54.959Z" fill="#8C81FF"/>
<path d="M83.5862 27.7388H70.1057C69.1035 27.7388 68.291 28.5512 68.291 29.5534V43.0339C68.291 44.0361 69.1035 44.8486 70.1057 44.8486H83.5862C84.5884 44.8486 85.4008 44.0361 85.4008 43.0339V29.5534C85.4008 28.5512 84.5884 27.7388 83.5862 27.7388Z" fill="#FFB34B" stroke="#E78945" stroke-width="0.518479"/>
<path d="M104.843 48.9961H96.5475C93.2545 48.9961 90.585 51.6656 90.585 54.9586C90.585 58.2516 93.2545 60.9211 96.5475 60.9211H104.843C108.136 60.9211 110.806 58.2516 110.806 54.9586C110.806 51.6656 108.136 48.9961 104.843 48.9961Z" fill="#48C2F7" stroke="#1090E0" stroke-width="0.518479"/>
<path d="M66.9944 73.1054L61.8096 70.1117V76.0991L66.9944 73.1054ZM51.4401 73.6239H62.3281V72.5869H51.4401V73.6239ZM49.8846 71.0315V65.8467H48.8477V71.0315H49.8846ZM51.4401 72.5869C51.0275 72.5869 50.6319 72.423 50.3402 72.1313C50.0485 71.8396 49.8846 71.444 49.8846 71.0315H48.8477C48.8477 71.719 49.1208 72.3784 49.6069 72.8646C50.0931 73.3507 50.7525 73.6239 51.4401 73.6239V72.5869Z" fill="#FF7A70"/>
<path d="M83.5862 65.0693H70.1057C69.1035 65.0693 68.291 65.8818 68.291 66.884V80.3645C68.291 81.3667 69.1035 82.1792 70.1057 82.1792H83.5862C84.5884 82.1792 85.4008 81.3667 85.4008 80.3645V66.884C85.4008 65.8818 84.5884 65.0693 83.5862 65.0693Z" fill="#FF9CC6" stroke="#EE5E99" stroke-width="0.518479"/>
<path d="M58.0859 53.6758L50.6494 46.2392C49.9407 45.5305 48.7917 45.5305 48.083 46.2392L40.6465 53.6758C39.9378 54.3844 39.9378 55.5334 40.6465 56.2421L48.083 63.6786C48.7917 64.3873 49.9407 64.3873 50.6494 63.6786L58.0859 56.2421C58.7946 55.5334 58.7946 54.3844 58.0859 53.6758Z" fill="#FF7A70" stroke="#D33D44" stroke-width="0.518479"/>
<path d="M29.1455 11.666H14.1096C13.1074 11.666 12.2949 12.4785 12.2949 13.4807V28.5166C12.2949 29.5188 13.1074 30.3313 14.1096 30.3313H29.1455C30.1477 30.3313 30.9602 29.5188 30.9602 28.5166V13.4807C30.9602 12.4785 30.1477 11.666 29.1455 11.666Z" fill="#EBC2FF" stroke="#B660E0" stroke-width="0.518479"/>
</svg>
