<svg width="134" height="92" viewBox="0 0 134 92" fill="none" xmlns="http://www.w3.org/2000/svg">
<path d="M67.269 5.42818C67.1961 5.35536 67.0972 5.31445 66.9942 5.31445C66.8911 5.31445 66.7923 5.35536 66.7194 5.42818L64.2447 7.90288C64.176 7.97659 64.1386 8.07409 64.1404 8.17483C64.1422 8.27557 64.183 8.37169 64.2542 8.44294C64.3255 8.51418 64.4216 8.55499 64.5223 8.55677C64.6231 8.55855 64.7206 8.52115 64.7943 8.45247L66.9942 6.25308L69.1941 8.45247C69.2297 8.49067 69.2726 8.52132 69.3203 8.54257C69.368 8.56382 69.4195 8.57525 69.4717 8.57617C69.5239 8.57709 69.5758 8.56749 69.6242 8.54793C69.6726 8.52837 69.7166 8.49926 69.7535 8.46234C69.7905 8.42541 69.8196 8.38143 69.8391 8.33301C69.8587 8.28459 69.8683 8.23273 69.8674 8.18051C69.8665 8.1283 69.855 8.07681 69.8338 8.02911C69.8125 7.98141 69.7819 7.93848 69.7437 7.90288L67.269 5.42818ZM66.7194 85.8236C66.7923 85.8964 66.8911 85.9373 66.9942 85.9373C67.0972 85.9373 67.1961 85.8964 67.269 85.8236L69.7437 83.3489C69.7798 83.3128 69.8084 83.27 69.8279 83.2228C69.8474 83.1757 69.8575 83.1251 69.8575 83.0741C69.8575 83.0231 69.8474 82.9725 69.8279 82.9254C69.8084 82.8782 69.7798 82.8354 69.7437 82.7993C69.7076 82.7632 69.6647 82.7346 69.6176 82.7151C69.5704 82.6955 69.5199 82.6855 69.4689 82.6855C69.4178 82.6855 69.3673 82.6955 69.3202 82.7151C69.273 82.7346 69.2302 82.7632 69.1941 82.7993L66.9942 84.9987L64.7943 82.7993C64.7582 82.7632 64.7153 82.7346 64.6682 82.7151C64.621 82.6955 64.5705 82.6855 64.5195 82.6855C64.4684 82.6855 64.4179 82.6955 64.3708 82.7151C64.3236 82.7346 64.2808 82.7632 64.2447 82.7993C64.2086 82.8354 64.18 82.8782 64.1604 82.9254C64.1409 82.9725 64.1309 83.0231 64.1309 83.0741C64.1309 83.1251 64.1409 83.1757 64.1604 83.2228C64.18 83.27 64.2086 83.3128 64.2447 83.3489L66.7194 85.8236ZM66.6053 5.70297V85.5488H67.383V5.70297H66.6053Z" fill="#87909E"/>
<path d="M26.7963 45.3514C26.7235 45.4243 26.6826 45.5231 26.6826 45.6262C26.6826 45.7292 26.7235 45.8281 26.7963 45.901L29.271 48.3757C29.3448 48.4444 29.4423 48.4818 29.543 48.48C29.6437 48.4782 29.7399 48.4374 29.8111 48.3662C29.8823 48.2949 29.9232 48.1988 29.9249 48.0981C29.9267 47.9973 29.8893 47.8998 29.8206 47.8261L27.6212 45.6262L29.8206 43.4263C29.8893 43.3526 29.9267 43.2551 29.9249 43.1543C29.9232 43.0536 29.8823 42.9575 29.8111 42.8862C29.7399 42.815 29.6437 42.7742 29.543 42.7724C29.4423 42.7706 29.3448 42.808 29.271 42.8767L26.7963 45.3514ZM107.192 45.901C107.265 45.8281 107.305 45.7292 107.305 45.6262C107.305 45.5231 107.265 45.4243 107.192 45.3514L104.717 42.8767C104.681 42.8385 104.639 42.8078 104.591 42.7866C104.543 42.7653 104.492 42.7539 104.439 42.753C104.387 42.7521 104.335 42.7617 104.287 42.7812C104.239 42.8008 104.195 42.8299 104.158 42.8668C104.121 42.9037 104.092 42.9477 104.072 42.9962C104.052 43.0446 104.043 43.0964 104.044 43.1486C104.045 43.2009 104.056 43.2523 104.077 43.3C104.099 43.3477 104.129 43.3907 104.167 43.4263L106.367 45.6262L104.167 47.8261C104.099 47.8998 104.061 47.9973 104.063 48.0981C104.065 48.1988 104.106 48.2949 104.177 48.3662C104.248 48.4374 104.344 48.4782 104.445 48.48C104.546 48.4818 104.643 48.4444 104.717 48.3757L107.192 45.901ZM27.0711 46.015H106.917V45.2373H27.0711V46.015Z" fill="#87909E"/>
<path d="M63.3647 33.7012H48.3288C47.1834 33.7012 46.2549 34.6297 46.2549 35.7751V41.9968C46.2549 43.1422 47.1834 44.0708 48.3288 44.0708H63.3647C64.5101 44.0708 65.4386 43.1422 65.4386 41.9968V35.7751C65.4386 34.6297 64.5101 33.7012 63.3647 33.7012Z" fill="#3DC3B9"/>
<path d="M85.1411 33.7012H70.6237C69.4783 33.7012 68.5498 34.6297 68.5498 35.7751V41.9968C68.5498 43.1422 69.4783 44.0708 70.6237 44.0708H85.1411C86.2865 44.0708 87.2151 43.1422 87.2151 41.9968V35.7751C87.2151 34.6297 86.2865 33.7012 85.1411 33.7012Z" fill="#FFB34B"/>
<path d="M63.8833 47.1816H48.3289C47.4698 47.1816 46.7734 47.878 46.7734 48.7371V55.9958C46.7734 56.8548 47.4698 57.5512 48.3289 57.5512H63.8833C64.7423 57.5512 65.4387 56.8548 65.4387 55.9958V48.7371C65.4387 47.878 64.7423 47.1816 63.8833 47.1816Z" fill="#FF7A70"/>
<path d="M85.6593 47.2466H70.1049C69.2816 47.2466 68.6143 47.914 68.6143 48.7372V55.9959C68.6143 56.8192 69.2816 57.4866 70.1049 57.4866H85.6593C86.4825 57.4866 87.1499 56.8192 87.1499 55.9959V48.7372C87.1499 47.914 86.4825 47.2466 85.6593 47.2466Z" fill="#ADB3BD" stroke="#ADB3BD" stroke-width="0.12962"/>
</svg>
