<svg width="40" height="40" viewBox="0 0 40 40" fill="none" xmlns="http://www.w3.org/2000/svg">
<path d="M16.826 5.31641H4.45291C4.11371 5.31641 3.83887 5.57995 3.83887 5.9052C3.83887 6.23045 4.11371 6.49399 4.45291 6.49399H16.826C17.1651 6.49399 17.44 6.23045 17.44 5.9052C17.44 5.57995 17.1651 5.31641 16.826 5.31641Z" fill="#DD8C2F"/>
<path d="M16.826 9.19141H4.45291C4.11371 9.19141 3.83887 9.45495 3.83887 9.7802C3.83887 10.1054 4.11371 10.369 4.45291 10.369H16.826C17.1651 10.369 17.44 10.1054 17.44 9.7802C17.44 9.45495 17.1651 9.19141 16.826 9.19141Z" fill="#DD8C2F"/>
<path d="M37.6996 36.1256H37.4189V33.7576C37.4189 31.7237 36.2458 29.8847 34.3575 28.9583L33.1796 28.3804L34.3575 27.8024C36.2459 26.8761 37.4189 25.037 37.4189 23.0031V20.6351H37.6996C38.6167 20.6351 39.3629 19.9196 39.3629 19.0402C39.3629 18.1608 38.6167 17.4453 37.6996 17.4453H24.2414C23.3243 17.4453 22.5781 18.1608 22.5781 19.0402C22.5781 19.9196 23.3243 20.6351 24.2414 20.6351H24.5221V23.0031C24.5221 25.0371 25.6952 26.8761 27.5835 27.8024L28.7613 28.3803L27.5835 28.9583C25.6951 29.8847 24.5221 31.7237 24.5221 33.7575V36.1256H24.2414C23.3243 36.1256 22.5781 36.8411 22.5781 37.7205C22.5781 38.5999 23.3243 39.3154 24.2414 39.3154H37.6996C38.6167 39.3154 39.3629 38.5999 39.3629 37.7205C39.3629 36.8411 38.6166 36.1256 37.6996 36.1256ZM23.7122 19.0402C23.7122 18.7604 23.9496 18.5328 24.2414 18.5328H37.6996C37.9914 18.5328 38.2288 18.7604 38.2288 19.0402C38.2288 19.32 37.9914 19.5476 37.6996 19.5476H24.2414C23.9496 19.5476 23.7122 19.32 23.7122 19.0402ZM36.2848 20.6351V23.0031C36.2848 23.5883 36.1632 24.1532 35.9371 24.6712H26.004C25.7778 24.1532 25.6562 23.5883 25.6562 23.0031V20.6351H36.2848ZM28.1 26.8344C27.5487 26.5639 27.0738 26.196 26.6931 25.7586H35.2478C34.8671 26.196 34.3922 26.5639 33.8409 26.8344L32.5113 27.4866C32.3435 27.5689 32.2061 27.69 32.1082 27.8352H29.8326C29.7347 27.69 29.5973 27.569 29.4295 27.4866L28.1 26.8344ZM28.1 29.9264L29.4296 29.2741C29.5985 29.1912 29.7367 29.0691 29.8347 28.9226H32.1063C32.2043 29.0691 32.3425 29.1912 32.5114 29.2741L33.841 29.9264C34.8471 30.4199 35.5988 31.2381 35.9876 32.2104H25.9534C26.3422 31.2381 27.0939 30.42 28.1 29.9264ZM25.6562 33.7575C25.6562 33.6028 25.6647 33.4494 25.6814 33.2978H36.2596C36.2763 33.4494 36.2848 33.6028 36.2848 33.7576V36.1256H25.6562V33.7575ZM37.6996 38.2279H24.2414C23.9496 38.2279 23.7122 38.0003 23.7122 37.7205C23.7122 37.4408 23.9496 37.2131 24.2414 37.2131H37.6996C37.9914 37.2131 38.2288 37.4408 38.2288 37.7205C38.2288 38.0003 37.9914 38.2279 37.6996 38.2279Z" fill="url(#paint0_linear_753_14702)"/>
<path d="M19.6481 38.4824H3.0621C2.23102 38.4824 1.55485 37.8341 1.55485 37.0371V3.21278C1.55485 2.41587 2.23102 1.76758 3.0621 1.76758H22.147V8.56567C22.147 9.72082 23.127 10.6606 24.3317 10.6606H31.4214V14.5599C31.4214 14.8754 31.688 15.1311 32.0172 15.1311C32.3463 15.1311 32.6129 14.8754 32.6129 14.5599V10.0893C32.6129 9.93783 32.5502 9.79257 32.4385 9.68532L23.1641 0.792273C23.0524 0.685176 22.9008 0.625 22.7428 0.625H3.0621C1.57399 0.625 0.363281 1.78586 0.363281 3.21278V37.0372C0.363281 38.4641 1.57391 39.625 3.0621 39.625H19.6481C19.9772 39.625 20.2438 39.3693 20.2438 39.0537C20.2438 38.7381 19.9772 38.4824 19.6481 38.4824ZM23.3386 8.56567V2.57545L30.5789 9.51805H24.3317C23.7841 9.51805 23.3386 9.09088 23.3386 8.56567Z" fill="url(#paint1_linear_753_14702)"/>
<defs>
<linearGradient id="paint0_linear_753_14702" x1="23.3142" y1="17.4453" x2="41.7889" y2="46.6774" gradientUnits="userSpaceOnUse">
<stop stop-color="#D68D2E"/>
<stop offset="0.504808" stop-color="#6D873E"/>
<stop offset="1" stop-color="#526D40"/>
</linearGradient>
<linearGradient id="paint1_linear_753_14702" x1="1.16179" y1="0.625001" x2="30.1927" y2="40.797" gradientUnits="userSpaceOnUse">
<stop stop-color="#DD8D2D"/>
<stop offset="0.519231" stop-color="#6E883F"/>
<stop offset="1" stop-color="#456141"/>
</linearGradient>
</defs>
</svg>
