<svg width="42" height="42" viewBox="0 0 42 42" fill="none" xmlns="http://www.w3.org/2000/svg">
<path d="M17.826 5.31641H5.45291C5.11371 5.31641 4.83887 5.57995 4.83887 5.9052C4.83887 6.23045 5.11371 6.49399 5.45291 6.49399H17.826C18.1651 6.49399 18.44 6.23045 18.44 5.9052C18.44 5.57995 18.1651 5.31641 17.826 5.31641Z" fill="#DD8C2F"/>
<path d="M17.826 9.19141H5.45291C5.11371 9.19141 4.83887 9.45495 4.83887 9.7802C4.83887 10.1054 5.11371 10.369 5.45291 10.369H17.826C18.1651 10.369 18.44 10.1054 18.44 9.7802C18.44 9.45495 18.1651 9.19141 17.826 9.19141Z" fill="#DD8C2F"/>
<path d="M38.6996 36.1256H38.4189V33.7576C38.4189 31.7237 37.2458 29.8847 35.3575 28.9583L34.1796 28.3804L35.3575 27.8024C37.2459 26.8761 38.4189 25.037 38.4189 23.0031V20.6351H38.6996C39.6167 20.6351 40.3629 19.9196 40.3629 19.0402C40.3629 18.1608 39.6167 17.4453 38.6996 17.4453H25.2414C24.3243 17.4453 23.5781 18.1608 23.5781 19.0402C23.5781 19.9196 24.3243 20.6351 25.2414 20.6351H25.5221V23.0031C25.5221 25.0371 26.6952 26.8761 28.5835 27.8024L29.7613 28.3803L28.5835 28.9583C26.6951 29.8847 25.5221 31.7237 25.5221 33.7575V36.1256H25.2414C24.3243 36.1256 23.5781 36.8411 23.5781 37.7205C23.5781 38.5999 24.3243 39.3154 25.2414 39.3154H38.6996C39.6167 39.3154 40.3629 38.5999 40.3629 37.7205C40.3629 36.8411 39.6166 36.1256 38.6996 36.1256ZM24.7122 19.0402C24.7122 18.7604 24.9496 18.5328 25.2414 18.5328H38.6996C38.9914 18.5328 39.2288 18.7604 39.2288 19.0402C39.2288 19.32 38.9914 19.5476 38.6996 19.5476H25.2414C24.9496 19.5476 24.7122 19.32 24.7122 19.0402ZM37.2848 20.6351V23.0031C37.2848 23.5883 37.1632 24.1532 36.9371 24.6712H27.004C26.7778 24.1532 26.6562 23.5883 26.6562 23.0031V20.6351H37.2848ZM29.1 26.8344C28.5487 26.5639 28.0738 26.196 27.6931 25.7586H36.2478C35.8671 26.196 35.3922 26.5639 34.8409 26.8344L33.5113 27.4866C33.3435 27.5689 33.2061 27.69 33.1082 27.8352H30.8326C30.7347 27.69 30.5973 27.569 30.4295 27.4866L29.1 26.8344ZM29.1 29.9264L30.4296 29.2741C30.5985 29.1912 30.7367 29.0691 30.8347 28.9226H33.1063C33.2043 29.0691 33.3425 29.1912 33.5114 29.2741L34.841 29.9264C35.8471 30.4199 36.5988 31.2381 36.9876 32.2104H26.9534C27.3422 31.2381 28.0939 30.42 29.1 29.9264ZM26.6562 33.7575C26.6562 33.6028 26.6647 33.4494 26.6814 33.2978H37.2596C37.2763 33.4494 37.2848 33.6028 37.2848 33.7576V36.1256H26.6562V33.7575ZM38.6996 38.2279H25.2414C24.9496 38.2279 24.7122 38.0003 24.7122 37.7205C24.7122 37.4408 24.9496 37.2131 25.2414 37.2131H38.6996C38.9914 37.2131 39.2288 37.4408 39.2288 37.7205C39.2288 38.0003 38.9914 38.2279 38.6996 38.2279Z" fill="url(#paint0_linear_753_14701)"/>
<path d="M20.6481 38.4824H4.0621C3.23102 38.4824 2.55485 37.8341 2.55485 37.0371V3.21278C2.55485 2.41587 3.23102 1.76758 4.0621 1.76758H23.147V8.56567C23.147 9.72082 24.127 10.6606 25.3317 10.6606H32.4214V14.5599C32.4214 14.8754 32.688 15.1311 33.0172 15.1311C33.3463 15.1311 33.6129 14.8754 33.6129 14.5599V10.0893C33.6129 9.93783 33.5502 9.79257 33.4385 9.68532L24.1641 0.792273C24.0524 0.685176 23.9008 0.625 23.7428 0.625H4.0621C2.57399 0.625 1.36328 1.78586 1.36328 3.21278V37.0372C1.36328 38.4641 2.57391 39.625 4.0621 39.625H20.6481C20.9772 39.625 21.2438 39.3693 21.2438 39.0537C21.2438 38.7381 20.9772 38.4824 20.6481 38.4824ZM24.3386 8.56567V2.57545L31.5789 9.51805H25.3317C24.7841 9.51805 24.3386 9.09088 24.3386 8.56567Z" fill="url(#paint1_linear_753_14701)"/>
<defs>
<linearGradient id="paint0_linear_753_14701" x1="24.3142" y1="17.4453" x2="42.7889" y2="46.6774" gradientUnits="userSpaceOnUse">
<stop stop-color="#D68D2E"/>
<stop offset="0.504808" stop-color="#6D873E"/>
<stop offset="1" stop-color="#526D40"/>
</linearGradient>
<linearGradient id="paint1_linear_753_14701" x1="2.16179" y1="0.625001" x2="31.1927" y2="40.797" gradientUnits="userSpaceOnUse">
<stop stop-color="#DD8D2D"/>
<stop offset="0.519231" stop-color="#6E883F"/>
<stop offset="1" stop-color="#456141"/>
</linearGradient>
</defs>
</svg>
