<svg width="39" height="39" viewBox="0 0 39 39" fill="none" xmlns="http://www.w3.org/2000/svg">
<path d="M16.966 5.86695C16.966 5.49655 17.2658 5.19623 17.6355 5.19623H28.1063C28.476 5.19623 28.7758 5.49655 28.7758 5.86695C28.7758 6.23736 28.476 6.53767 28.1063 6.53767H17.6355C17.2658 6.53767 16.966 6.23744 16.966 5.86695ZM11.4465 7.29735C11.5772 7.4283 11.7485 7.49378 11.9199 7.49378C12.0913 7.49378 12.2626 7.4283 12.3933 7.29735L14.4456 5.24134C14.7072 4.97942 14.7071 4.55477 14.4456 4.29286C14.1842 4.03094 13.7603 4.03094 13.4989 4.29286L11.92 5.87467L11.3672 5.3209C11.1058 5.05899 10.6819 5.05899 10.4205 5.3209C10.1589 5.58282 10.159 6.00747 10.4205 6.26938L11.4465 7.29735ZM17.6355 13.6915H28.1063C28.476 13.6915 28.7758 13.3912 28.7758 13.0208C28.7758 12.6504 28.476 12.35 28.1063 12.35H17.6355C17.2658 12.35 16.966 12.6504 16.966 13.0208C16.966 13.3912 17.2658 13.6915 17.6355 13.6915ZM11.4465 14.523C11.5772 14.654 11.7485 14.7194 11.9199 14.7194C12.0913 14.7194 12.2626 14.654 12.3933 14.523L14.4456 12.467C14.7072 12.2051 14.7071 11.7804 14.4456 11.5185C14.1842 11.2566 13.7603 11.2566 13.4989 11.5185L11.92 13.1003L11.3672 12.5466C11.1058 12.2846 10.6819 12.2846 10.4205 12.5466C10.1589 12.8085 10.159 13.2331 10.4205 13.495L11.4465 14.523ZM38.001 26.4213L35.0403 28.1337C34.7337 28.3111 34.3928 28.4016 34.0469 28.4016C33.8726 28.4016 33.6971 28.3787 33.5239 28.3322C33.0072 28.1935 32.576 27.8626 32.3098 27.4007L32.2288 27.2602L30.7311 28.0264C31.1789 28.7377 31.1141 29.6148 30.7206 30.2925C30.5228 30.6332 30.2401 30.9267 29.9014 31.1294C30.0978 31.4516 30.2022 31.8209 30.2007 32.2142C30.1977 33.0293 29.7395 33.8177 29.0334 34.2226C28.641 34.4476 28.2071 34.5349 27.7727 34.4845C27.7504 34.8503 27.638 35.2096 27.4543 35.5256C27.0658 36.1938 26.3506 36.6771 25.5281 36.656C25.5193 37.051 25.4042 37.4419 25.2061 37.7826C24.8267 38.4351 24.1363 38.9137 23.3373 38.9137C22.9733 38.9137 22.5868 38.8144 22.1969 38.5869L20.4287 37.5554L20.0847 38.0454C19.6538 38.6591 19.0224 39 18.3303 39C18.2668 39 18.2029 38.9971 18.1386 38.9914C17.3448 38.92 16.6138 38.415 16.2625 37.6994C15.5168 38.0855 14.6494 37.945 14.0088 37.4936C13.5951 37.2021 13.2712 36.7777 13.1234 36.289C12.5083 36.4238 11.8641 36.261 11.36 35.9058C10.7322 35.4634 10.3113 34.7147 10.3989 33.9003C10.0041 33.8588 9.62243 33.7099 9.29855 33.4817C8.40108 32.8492 7.92648 31.5906 8.75608 30.4091L8.81299 30.328L6.59349 27.5513C6.32518 27.9343 5.9347 28.2092 5.47617 28.3323C5.3031 28.3788 5.12744 28.4017 4.9532 28.4017C4.60723 28.4017 4.26637 28.3112 3.95965 28.1338L0.999088 26.4213C0.0445376 25.8693 -0.283688 24.6422 0.2674 23.6858L5.46345 14.6696C5.62312 14.3926 5.83954 14.1686 6.08935 14.003V0.67072C6.08935 0.300315 6.38912 0 6.75886 0H32.2411C32.6109 0 32.9106 0.300315 32.9106 0.67072V14.003C33.1605 14.1685 33.377 14.3926 33.5366 14.6696L38.7326 23.6857C39.2837 24.6422 38.9555 25.8692 38.001 26.4213ZM7.42837 1.34144V13.6823C7.69073 13.7129 7.95117 13.7961 8.19403 13.9366L11.1547 15.6491C11.6158 15.9158 11.946 16.3477 12.0845 16.8654C12.1707 17.1881 12.1758 17.5193 12.103 17.8349L15.8149 19.1632C17.3806 17.7612 18.5355 17.2631 20.9178 17.7885C23.1512 18.281 25.0246 18.2856 26.8885 17.7942C26.8252 17.4909 26.8328 17.1743 26.9155 16.8653C27.0539 16.3476 27.3841 15.9156 27.8453 15.649L30.8059 13.9365C31.0487 13.796 31.3092 13.7129 31.5715 13.6823V1.34144H7.42837ZM5.53065 26.73L10.7267 17.7139C10.8141 17.5622 10.837 17.3842 10.7911 17.2127C10.7453 17.0411 10.6366 16.8984 10.4852 16.8108L7.52461 15.0984C7.421 15.0385 7.3076 15.01 7.19571 15.01C6.96741 15.01 6.74522 15.1286 6.62312 15.3404L1.42707 24.3565C1.24513 24.6723 1.35351 25.0774 1.66859 25.2596L4.62924 26.9721C4.78071 27.0597 4.95847 27.0827 5.12961 27.0365C5.30084 26.9906 5.44328 26.8818 5.53065 26.73ZM11.2734 32.1835L12.8121 29.992L12.8124 29.9916C13.2799 29.3234 12.7117 28.8727 12.593 28.7891C12.4743 28.7055 11.8582 28.3223 11.3888 28.9908L9.85123 31.1807C9.38165 31.8495 9.95023 32.3008 10.069 32.3844C10.1877 32.4682 10.8034 32.8515 11.273 32.184L11.2734 32.1835ZM13.4656 34.4211L15.6151 31.3597L15.9419 30.8943C16.4115 30.2255 15.8428 29.7742 15.7241 29.6905C15.6052 29.6067 14.989 29.2232 14.5194 29.8919L13.9079 30.7629C13.9078 30.7631 13.9077 30.7631 13.9076 30.7633L13.9074 30.7637L12.3687 32.9552L11.9126 33.6047C11.4431 34.2736 12.0117 34.7249 12.1305 34.8086C12.2492 34.8922 12.8655 35.2757 13.3351 34.6071L13.4656 34.4211ZM16.4703 35.5016C16.4708 35.5009 16.4713 35.5003 16.4718 35.4996L17.2428 34.4014L18.1322 33.1347C18.6016 32.4661 18.0332 32.0148 17.9145 31.931C17.7959 31.8475 17.1805 31.464 16.711 32.1307L16.7103 32.1317L14.561 35.1929L14.5605 35.1936C14.0921 35.8619 14.6604 36.3128 14.7791 36.3965C14.8979 36.4802 15.5142 36.8638 15.9837 36.195L16.4703 35.5016ZM19.5424 34.9718C19.4237 34.8881 18.8078 34.5047 18.3384 35.1727L18.3381 35.1732L17.567 36.2714C17.371 36.5506 17.3336 36.826 17.4557 37.09C17.596 37.393 17.926 37.6256 18.2581 37.6554C18.5473 37.6814 18.7934 37.5529 18.9895 37.2737L19.7604 36.1757C20.2298 35.5069 19.6612 35.0555 19.5424 34.9718ZM29.2593 28.4333L20.9803 23.6324C20.236 23.2018 19.5003 23.5121 18.3615 24.0536C18.3062 24.0798 18.2509 24.1062 18.1955 24.1323C18.1124 24.2995 18.0286 24.479 17.9413 24.6658C17.5113 25.5862 17.0239 26.6292 16.1808 27.0852C15.1885 27.6217 14.303 27.7036 13.6874 27.3156C13.4041 27.1369 12.9356 26.6929 12.9813 25.7255L13.1586 21.9871C13.1666 21.8167 13.2393 21.6559 13.3616 21.5371C13.7098 21.1994 14.0223 20.8909 14.3245 20.5927C14.4626 20.4564 14.5956 20.3252 14.7254 20.1977L11.5054 19.0453L7.31798 26.3114L9.61514 29.1853L10.2936 28.2189C11.1229 27.0376 12.4654 27.0596 13.363 27.6914C13.6551 27.8971 13.9025 28.1691 14.0747 28.4831C14.8548 27.9818 15.8057 28.1078 16.4944 28.5931C17.0724 29.0003 17.475 29.6673 17.467 30.4059C17.9033 30.4279 18.3292 30.5828 18.6852 30.8338C19.4794 31.3938 19.9423 32.4439 19.4631 33.497C19.7676 33.5647 20.0581 33.6949 20.3129 33.8744C21.0774 34.4133 21.5344 35.406 21.141 36.4186L22.8706 37.4276C23.576 37.8389 23.9761 37.2329 24.0491 37.1072C24.1222 36.9816 24.4508 36.3346 23.7472 35.9228L23.7463 35.9222C23.7462 35.9221 23.7462 35.9221 23.746 35.9221C23.746 35.9221 23.746 35.9221 23.7459 35.9221L21.5171 34.622C21.1976 34.4357 21.0894 34.0251 21.2754 33.705C21.4615 33.3849 21.8713 33.2766 22.1909 33.4629L24.4197 34.763C24.4198 34.7631 24.42 34.7631 24.42 34.7631L24.4203 34.7633C24.4208 34.7636 24.4213 34.7639 24.4218 34.7642L25.1188 35.1709C25.824 35.5821 26.2241 34.9761 26.2973 34.8505C26.3703 34.7248 26.6988 34.0778 25.9952 33.666L25.9942 33.6654C25.9941 33.6654 25.9941 33.6653 25.994 33.6653C25.9939 33.6653 25.9937 33.6651 25.9935 33.665L23.2613 32.0712C22.9418 31.8848 22.8336 31.4743 23.0196 31.1542C23.2057 30.8341 23.6155 30.7257 23.9351 30.912L26.6681 32.5063L26.6682 32.5063C26.6688 32.5067 26.6692 32.5069 26.6698 32.5073L27.5445 33.0175C27.839 33.1894 28.1161 33.2031 28.3682 33.0585C28.6576 32.8926 28.8605 32.5433 28.8617 32.2093C28.8628 31.9183 28.714 31.6836 28.4195 31.5118L27.713 31.0997C27.7128 31.0996 27.7126 31.0995 27.7124 31.0993L27.7118 31.099C27.7118 31.0989 27.7116 31.0988 27.7115 31.0988L25.0055 29.5204C24.686 29.334 24.5778 28.9234 24.7638 28.6033C24.95 28.2832 25.3597 28.1749 25.6793 28.3612L28.3853 29.9396C29.0907 30.3501 29.4902 29.7439 29.5632 29.6182C29.636 29.4925 29.9643 28.8446 29.2593 28.4333ZM31.5583 26.0969L27.4814 19.0225C24.6695 19.8178 22.2436 19.4545 20.63 19.0986C18.2728 18.579 17.6953 19.149 15.2643 21.5485C15.0272 21.7825 14.7642 22.042 14.4835 22.3157L14.3188 25.7894C14.3081 26.0171 14.3521 26.1498 14.4005 26.1804C14.5138 26.2516 14.9248 26.2402 15.5448 25.9049C15.9987 25.6594 16.3865 24.8295 16.7286 24.0973C16.8527 23.8315 16.9811 23.5568 17.1134 23.3073C17.1821 23.1777 17.2913 23.0743 17.4243 23.0128C17.5455 22.9568 17.6665 22.8993 17.7872 22.8418C18.9457 22.2908 20.2588 21.6663 21.6505 22.471L29.6163 27.0903L31.5583 26.0969ZM37.5729 24.3564L32.377 15.3404C32.195 15.0246 31.7906 14.9161 31.4755 15.0984L28.5148 16.8108C28.3634 16.8984 28.2548 17.0411 28.2089 17.2127C28.163 17.3842 28.1859 17.5622 28.2733 17.7139L33.4693 26.7301C33.5567 26.8818 33.6992 26.9906 33.8705 27.0365C34.0419 27.0828 34.2194 27.0597 34.3708 26.9721L37.3315 25.2596C37.6466 25.0774 37.7549 24.6722 37.5729 24.3564Z" fill="white"/>
</svg>
