<svg width="26" height="26" viewBox="0 0 26 26" fill="none" xmlns="http://www.w3.org/2000/svg">
<path d="M22.6094 10.742H22.5428V9.24777C22.5428 4.4478 18.2943 0.556641 13.0533 0.556641C7.81241 0.556641 3.56391 4.4478 3.56391 9.24777V10.742H3.16438C1.69933 10.742 0.567272 11.9313 0.567272 13.3036V17.1155C0.530372 18.4456 1.67779 19.5512 3.13003 19.585C3.1415 19.5853 3.15291 19.5855 3.16438 19.5856H5.62828C5.97727 19.5706 6.24692 19.2993 6.23048 18.9796C6.22991 18.9681 6.22895 18.9566 6.22761 18.9452V11.4739C6.22761 11.108 5.99455 10.742 5.62828 10.742H4.89576V9.24771C4.89576 5.12144 8.54806 1.77639 13.0533 1.77639C17.5586 1.77639 21.2109 5.12144 21.2109 9.24771V10.742H20.4784C20.1121 10.742 19.8791 11.1079 19.8791 11.4739V18.9452C19.8419 19.2634 20.0934 19.5489 20.4408 19.5829C20.4533 19.5842 20.4658 19.585 20.4784 19.5856H21.2442L21.1776 19.677C20.1785 20.8932 18.6107 21.6054 16.949 21.5982C16.5852 19.9645 14.8442 18.9102 13.0604 19.2434C11.535 19.5283 10.4352 20.7518 10.4229 22.1776C10.4411 23.8499 11.9266 25.1968 13.7525 25.1966C14.6564 25.1832 15.518 24.8435 16.1498 24.2513C16.5761 23.8515 16.8555 23.3397 16.949 22.7875C19.0299 22.7947 20.9924 21.9017 22.243 20.3784L22.8757 19.5245C24.3074 19.433 25.2064 18.6097 25.2064 17.4203V13.6085C25.2065 12.2973 24.141 10.742 22.6094 10.742ZM4.89576 18.3658H3.16438C2.4474 18.3498 1.88032 17.8046 1.89779 17.1479C1.8981 17.1371 1.89855 17.1263 1.89912 17.1155V13.3036C1.89912 12.6022 2.43185 11.9618 3.16438 11.9618H4.89576V18.3658ZM15.1843 23.3975C14.8153 23.764 14.2969 23.9738 13.7526 23.9769C12.6693 23.9612 11.7902 23.1695 11.7548 22.1777C11.7544 21.184 12.6335 20.3782 13.7185 20.3778C14.8035 20.3773 15.6833 21.1826 15.6838 22.1762C15.6838 22.1767 15.6838 22.1772 15.6838 22.1777C15.7115 22.6305 15.5302 23.0731 15.1843 23.3975ZM23.8746 17.4205C23.8746 18.2438 23.0089 18.3658 22.6094 18.3658H21.2109V11.9618H22.6094C23.3419 11.9618 23.8746 12.9072 23.8746 13.6086V17.4205Z" fill="#A0A3BD"/>
</svg>
