<svg width="26" height="26" viewBox="0 0 26 26" fill="none" xmlns="http://www.w3.org/2000/svg">
<path d="M3.72459 0.798347C3.61069 0.850122 3.44501 0.974379 3.35182 1.06757C3.01529 1.42481 3.02565 1.31608 3.02565 4.68136V7.73083L2.52345 7.75153C2.0989 7.76707 1.96429 7.79813 1.70542 7.92239C1.31195 8.11395 0.913289 8.50743 0.71655 8.90608L0.566406 9.21673V16.6462V24.0757L0.71655 24.3864C0.913289 24.785 1.30677 25.1785 1.70542 25.3752L2.01607 25.5254H11.1023H20.1886L20.4889 25.3856C20.8565 25.2147 21.2965 24.8057 21.4519 24.4899C21.5192 24.3553 22.389 21.5906 23.3882 18.3392L25.2003 12.4267L25.2054 11.8831C25.2106 11.3757 25.2003 11.3187 25.0449 10.9874C24.7602 10.3868 24.1493 9.91049 23.5642 9.83283L23.3364 9.80177L23.3053 9.49113C23.2277 8.64204 22.42 7.83437 21.5658 7.75671L21.2499 7.72565V4.66583C21.2499 1.24878 21.2603 1.38857 20.8823 1.02615C20.5096 0.674091 21.1775 0.699978 12.1274 0.699978C4.25268 0.699978 3.92133 0.705156 3.72459 0.798347ZM20.1316 1.60084C20.2507 1.64743 20.3232 1.72509 20.3646 1.839C20.406 1.96325 20.4216 3.13334 20.4216 5.9084V9.81212L13.2923 9.82248L6.15795 9.83801L5.86802 9.98297C5.48489 10.1694 5.15872 10.4593 4.9568 10.801C4.83255 11.0133 4.39765 12.4267 3.10331 16.8274C2.17656 19.9856 1.41031 22.595 1.39478 22.6261C1.38443 22.652 1.37925 19.7319 1.38443 16.1285L1.39478 9.57914L1.50351 9.34616C1.72096 8.88537 2.08337 8.65239 2.68394 8.59027L3.02565 8.55402V10.4282V12.2973H3.43984H3.85403V7.15096C3.85403 3.45433 3.86956 1.96325 3.91098 1.839C4.02488 1.51282 3.53821 1.53353 12.1274 1.52835C18.7079 1.52835 19.9867 1.53871 20.1316 1.60084ZM21.7055 8.70417C22.0835 8.85949 22.4355 9.32545 22.4407 9.66716V9.81212H21.8453H21.2499V9.21673V8.62133H21.3794C21.4519 8.62133 21.5968 8.65757 21.7055 8.70417ZM23.6212 10.7648C23.9007 10.8838 24.2373 11.2618 24.3097 11.5414C24.3408 11.6553 24.3563 11.8572 24.346 11.9866C24.3046 12.3646 20.7477 23.9411 20.5976 24.1637C20.4319 24.4174 20.1213 24.609 19.7796 24.6763C19.6087 24.7074 16.347 24.7177 10.9418 24.7125L2.37848 24.697L2.12997 24.5831C1.99536 24.521 1.8711 24.4381 1.85557 24.3967C1.83486 24.3294 5.46418 11.8572 5.62986 11.443C5.70752 11.2411 6.00263 10.9149 6.19937 10.8165C6.27703 10.7699 6.4427 10.7182 6.56178 10.6923C6.68086 10.6716 10.5173 10.656 15.0889 10.6612C23.0775 10.6664 23.4089 10.6716 23.6212 10.7648Z" fill="#A0A3BD"/>
<path d="M5.09668 3.59948V4.01367H6.75343H8.41019V3.59948V3.1853H6.75343H5.09668V3.59948Z" fill="#A0A3BD"/>
<path d="M9.23828 3.59948V4.01367H14.2085H19.1788V3.59948V3.1853H14.2085H9.23828V3.59948Z" fill="#A0A3BD"/>
<path d="M5.09668 5.67175V6.08594H9.44566H13.7946V5.67175V5.25756H9.44566H5.09668V5.67175Z" fill="#A0A3BD"/>
<path d="M14.623 5.67175V6.08594H16.9011H19.1791V5.67175V5.25756H16.9011H14.623V5.67175Z" fill="#A0A3BD"/>
<path d="M5.09668 7.74011V8.1543H8.41019H11.7237V7.74011V7.32592H8.41019H5.09668V7.74011Z" fill="#A0A3BD"/>
<path d="M12.5518 7.74011V8.1543H15.8653H19.1788V7.74011V7.32592H15.8653H12.5518V7.74011Z" fill="#A0A3BD"/>
<path d="M12.8369 11.9815C12.723 12.0333 12.5573 12.1575 12.4641 12.2507C12.1328 12.6028 12.1379 12.5407 12.1379 15.4503V18.096L11.263 18.1063L10.3828 18.1219L12.0706 20.0892C12.9974 21.1713 13.774 22.0566 13.7947 22.0566C13.8154 22.0566 14.592 21.1713 15.5187 20.0892L17.2066 18.1219L16.3264 18.1063L15.4514 18.096V15.4503C15.4514 12.5407 15.4566 12.6028 15.1253 12.2507C14.825 11.9349 14.6386 11.8831 13.7947 11.8831C13.1734 11.8831 13.0077 11.9039 12.8369 11.9815ZM14.3331 12.784C14.4522 12.8306 14.5247 12.9083 14.5661 13.0222C14.6075 13.1412 14.6231 14.0525 14.6231 16.0561V18.9192L14.9699 18.9347L15.3117 18.9502L14.5816 19.8045C14.1778 20.2756 13.8258 20.6588 13.7947 20.6588C13.7636 20.6588 13.4116 20.2756 13.0077 19.8045L12.2777 18.9502L12.6194 18.9347L12.9663 18.9192V16.0561C12.9663 14.0525 12.9818 13.1412 13.0233 13.0222C13.0647 12.9134 13.1423 12.8306 13.2459 12.784C13.4582 12.696 14.1157 12.6908 14.3331 12.784Z" fill="#A0A3BD"/>
<path d="M11.7236 23.0663V23.4805H13.7946H15.8655V23.0663V22.6521H13.7946H11.7236V23.0663Z" fill="#A0A3BD"/>
</svg>
