<svg width="26" height="26" viewBox="0 0 26 26" fill="none" xmlns="http://www.w3.org/2000/svg">
<g clip-path="url(#clip0_753_11131)">
<path d="M11.361 0.871843C7.38584 1.38678 3.94009 3.84116 2.18352 7.40722C1.7504 8.28309 1.52902 8.87022 1.31246 9.72203C1.02371 10.8433 0.975586 11.3005 0.975586 12.7828C0.980398 13.9474 0.990023 14.1832 1.09109 14.7222C1.31246 15.9783 1.70227 17.1525 2.25571 18.2209C2.41452 18.5241 2.58777 18.8128 2.64552 18.8562C2.87652 19.0535 3.30965 18.8754 3.30965 18.5818C3.30965 18.5145 3.1364 18.1102 2.92465 17.6771C2.39046 16.5847 2.10652 15.7136 1.88034 14.4912C1.81296 14.1062 1.79371 13.7597 1.79371 12.7347C1.79371 11.6182 1.80815 11.3872 1.9044 10.8722C2.33752 8.51409 3.40109 6.48322 5.07584 4.83253C6.67359 3.24922 8.68521 2.19047 10.8508 1.78622C11.8278 1.60334 13.1993 1.55522 14.1378 1.6659C15.8462 1.87284 17.622 2.52253 19.0225 3.45616L19.5518 3.80747L18.9455 3.83153C18.3006 3.85559 18.2091 3.88928 18.1273 4.11547C18.0696 4.26466 18.1466 4.51009 18.2813 4.59672C18.368 4.64484 18.6134 4.65447 19.5566 4.62559C20.2689 4.60153 20.7694 4.56784 20.8368 4.53416C20.8993 4.50528 20.9763 4.41866 21.01 4.34647C21.0678 4.22134 21.0485 4.11066 20.755 3.07116C20.4999 2.15678 20.4133 1.91134 20.317 1.81991C20.1678 1.68516 19.9657 1.68516 19.7973 1.81509C19.6385 1.94022 19.6288 2.17603 19.7684 2.62841C19.8213 2.80165 19.8646 2.95566 19.8646 2.97491C19.8646 2.99416 19.6336 2.85941 19.3497 2.67172C17.9108 1.73328 16.1301 1.09322 14.3303 0.867031C13.6517 0.785217 12.0395 0.785217 11.361 0.871843Z" fill="#A0A3BD"/>
<path d="M12.3904 4.88961C11.8514 5.02917 11.3124 5.46711 11.0525 5.98686C10.8937 6.29486 10.8889 6.32855 10.8889 6.86273C10.8889 7.36805 10.8985 7.44023 11.0236 7.70011C11.0958 7.85892 11.2306 8.0803 11.322 8.19098C11.4904 8.39311 11.4904 8.39311 11.3749 8.42198C11.2113 8.46048 10.5761 8.89361 10.3932 9.08611L10.2296 9.25936L9.83976 8.85992C9.6232 8.64336 9.32482 8.39311 9.17082 8.3113L8.90132 8.1573L9.06495 7.91667C9.40663 7.40655 9.46438 6.71836 9.20932 6.16492C9.0457 5.79917 8.63663 5.40936 8.28051 5.2698C7.89551 5.1158 7.29395 5.1158 6.91857 5.26499C5.88388 5.67405 5.48926 6.97823 6.1197 7.91667L6.28332 8.1573L6.03788 8.29686C5.34007 8.69148 4.8107 9.37005 4.58451 10.1545C4.45938 10.5828 4.4642 10.8764 4.59895 11.0111L4.70963 11.1218L6.99076 11.1362L9.2767 11.1507V11.3335C9.2767 11.449 9.3152 11.5645 9.37776 11.6464L9.47401 11.7715H12.8861H16.2981L16.3944 11.6464C16.4569 11.5645 16.4954 11.449 16.4954 11.3335V11.1507L18.7814 11.1362L21.0625 11.1218L21.1732 11.0111C21.3079 10.8764 21.3128 10.5828 21.1876 10.1545C20.9711 9.3893 20.4561 8.72036 19.7872 8.33055L19.4888 8.1573L19.6524 7.91186C20.2829 6.97823 19.8883 5.67405 18.8536 5.26499C18.4782 5.1158 17.8766 5.1158 17.4916 5.2698C17.1355 5.40936 16.7264 5.79917 16.5628 6.16492C16.3078 6.71836 16.3655 7.40655 16.7072 7.91186L16.8708 8.1573L16.558 8.34017C16.3703 8.44605 16.1008 8.67705 15.8939 8.89361L15.5474 9.26417L15.3838 9.09092C15.1961 8.89361 14.5608 8.46048 14.3972 8.42198C14.2817 8.39311 14.2817 8.39311 14.4501 8.19098C14.5416 8.0803 14.6763 7.85892 14.7485 7.70011C14.8736 7.44023 14.8833 7.36805 14.8833 6.86273C14.8833 6.32855 14.8784 6.29486 14.7196 5.98686C14.5175 5.5778 14.1469 5.22167 13.7234 5.02436C13.4636 4.90405 13.3336 4.87517 12.9919 4.86073C12.7609 4.85111 12.4914 4.86555 12.3904 4.88961ZM13.2326 5.70774C13.6946 5.83767 14.0892 6.35742 14.0892 6.83386C14.0892 7.20442 14.0122 7.40655 13.7716 7.67123C13.2855 8.21505 12.5059 8.22467 12.0198 7.70011C11.7648 7.42098 11.6829 7.22367 11.6829 6.86755C11.6829 6.06867 12.4529 5.49117 13.2326 5.70774ZM7.95326 6.0398C8.52113 6.29486 8.71845 6.98786 8.36232 7.47873C7.98213 8.0033 7.18326 7.99367 6.80307 7.45467C6.26888 6.6943 7.11107 5.6548 7.95326 6.0398ZM18.5408 6.0398C18.7814 6.15049 19.0268 6.41998 19.099 6.66542C19.2723 7.24774 18.7958 7.87336 18.1798 7.87336C17.5638 7.87336 17.0874 7.24774 17.2606 6.66542C17.3761 6.28523 17.8044 5.94836 18.1798 5.94836C18.2713 5.94836 18.4349 5.99167 18.5408 6.0398ZM8.34788 8.84067C8.86282 9.03317 9.2382 9.33636 9.55101 9.80317C9.67613 9.99086 9.67613 10.0005 9.59913 10.1593L9.51732 10.3277H7.44795H5.37857L5.45076 10.1497C5.76357 9.40373 6.42288 8.88398 7.25545 8.72036C7.49126 8.67705 8.06876 8.73961 8.34788 8.84067ZM18.9209 8.83586C19.561 9.05723 20.1096 9.57698 20.3406 10.193L20.3936 10.3277H18.3242H16.2548L16.173 10.1593C16.096 10.0005 16.096 9.99086 16.2211 9.80317C16.6013 9.23048 17.1018 8.88398 17.7708 8.73961C18.0499 8.67705 18.5937 8.72036 18.9209 8.83586ZM13.5791 9.00911C14.3058 9.1968 15.0084 9.75023 15.3453 10.3999C15.4415 10.5828 15.5378 10.7849 15.557 10.8427L15.5859 10.9534H12.8861H10.1863L10.2151 10.8427C10.2344 10.7849 10.3306 10.5828 10.4269 10.3999C10.7541 9.76467 11.4231 9.23048 12.1401 9.02355C12.5107 8.91286 13.1893 8.90805 13.5791 9.00911Z" fill="#A0A3BD"/>
<path d="M22.5841 6.64686C22.5167 6.70943 22.4638 6.82011 22.4638 6.88749C22.4638 6.95486 22.6322 7.34949 22.8391 7.76818C23.6476 9.3948 24.0038 10.9204 24.0038 12.7347C24.0038 14.5249 23.6476 16.0553 22.8728 17.6194C21.1692 21.0603 17.9304 23.3462 14.1141 23.8034C13.551 23.8708 12.2179 23.8708 11.6356 23.8034C9.93681 23.6013 8.13694 22.942 6.75094 22.0132L6.22156 21.6619L6.82794 21.6378C7.47281 21.6137 7.56425 21.5801 7.64606 21.3539C7.70381 21.2047 7.62681 20.9592 7.49206 20.8726C7.40544 20.8245 7.16 20.8149 6.21675 20.8437C5.5045 20.8678 5.004 20.9015 4.93663 20.9352C4.87406 20.9641 4.79706 21.0507 4.76338 21.1229C4.70563 21.248 4.72488 21.3587 5.01844 22.3982C5.2735 23.3126 5.36013 23.558 5.45638 23.6494C5.60556 23.7842 5.80769 23.7842 5.97613 23.6542C6.13494 23.5291 6.14456 23.2933 6.005 22.8409C5.95206 22.6677 5.90875 22.5137 5.90875 22.4944C5.90875 22.4752 6.13975 22.6099 6.4285 22.7976C7.16963 23.2837 8.16581 23.7553 9.085 24.0633C9.95125 24.3472 10.5239 24.4772 11.4431 24.6023C12.2998 24.713 14.0659 24.6745 14.9033 24.5253C17.4203 24.0826 19.5378 22.9805 21.3328 21.1806C23.1327 19.3856 24.2299 17.2681 24.6775 14.7511C24.8123 14.01 24.8604 12.2967 24.7786 11.469C24.6679 10.4054 24.3839 9.26486 23.9749 8.24461C23.7102 7.59011 23.2626 6.72386 23.1279 6.60836C22.9835 6.48805 22.7236 6.50249 22.5841 6.64686Z" fill="#A0A3BD"/>
<path d="M4.60441 12.9225L4.46484 13.0621V13.707C4.46484 14.1208 4.48891 14.3903 4.52741 14.4673C4.57072 14.5588 4.72472 14.6454 5.19634 14.8283C5.53322 14.963 5.82197 15.0833 5.83641 15.1026C5.85566 15.1218 5.93266 15.3192 6.00966 15.5453C6.08666 15.7715 6.24066 16.1469 6.36097 16.3827L6.57272 16.8062L6.31284 17.3982C6.16847 17.7254 6.05297 18.0478 6.05297 18.1152C6.05297 18.2115 6.25509 18.4425 6.92884 19.121C7.72291 19.9151 7.82397 20.0017 7.96834 20.0017C8.05978 20.0017 8.37259 19.8958 8.67578 19.7611C8.97416 19.6312 9.23403 19.5205 9.24847 19.5205C9.26772 19.5205 9.47947 19.6167 9.72491 19.7322C9.97034 19.8525 10.3505 20.0065 10.5767 20.0787L10.9906 20.2135L11.2216 20.8343C11.366 21.2097 11.4959 21.4792 11.5585 21.5177C11.6403 21.5754 11.8905 21.5898 12.8867 21.5898C13.8829 21.5898 14.1332 21.5754 14.215 21.5177C14.2775 21.4792 14.4075 21.2097 14.5518 20.8295L14.7828 20.2135L15.1823 20.0835C15.4037 20.0162 15.7983 19.8573 16.0582 19.7322L16.5346 19.5108L17.088 19.7563C17.396 19.8958 17.7137 20.0017 17.8051 20.0017C17.9495 20.0017 18.0505 19.9151 18.8446 19.121C19.5183 18.4425 19.7205 18.2115 19.7205 18.1152C19.7205 18.0478 19.605 17.7254 19.4606 17.3982L19.2007 16.8062L19.4125 16.3827C19.5328 16.1469 19.6916 15.7715 19.7638 15.5453C19.8408 15.3143 19.9226 15.1122 19.9467 15.093C19.9659 15.0737 20.2498 14.9534 20.5771 14.8283C21.3182 14.5443 21.3086 14.5588 21.3086 13.6973V13.0621L21.169 12.9225L21.0295 12.783H18.758H16.4913L16.3758 12.9033C16.2843 12.9899 16.2555 13.0717 16.2555 13.2402C16.2555 13.8706 15.909 14.7946 15.4758 15.3192C15.0235 15.863 14.316 16.3057 13.6471 16.4645C13.2573 16.556 12.5162 16.556 12.1167 16.4597C11.4478 16.3057 10.7548 15.8678 10.3024 15.3288C9.86447 14.7946 9.51797 13.8754 9.51797 13.2402C9.51797 13.0717 9.48909 12.9899 9.39766 12.9033L9.28216 12.783H7.01547H4.74397L4.60441 12.9225ZM8.76241 13.8513C8.83459 14.5299 9.26291 15.4202 9.79228 16.0025C11.5296 17.9083 14.624 17.788 16.1881 15.7571C16.6212 15.1988 17.0255 14.2315 17.0255 13.7647V13.6011H18.758H20.4905V13.7888V13.9765L19.913 14.2027C19.5953 14.3278 19.3066 14.4577 19.2729 14.4914C19.2344 14.5251 19.1285 14.7994 19.0323 15.1026C18.936 15.4058 18.7339 15.887 18.5895 16.171C18.4452 16.4549 18.3248 16.734 18.3248 16.787C18.3248 16.8399 18.4355 17.1335 18.5703 17.4367L18.8157 17.9949L18.2719 18.5387C17.9687 18.8419 17.6992 19.0873 17.6703 19.0873C17.6367 19.0873 17.4297 19.0055 17.2083 18.9045C16.4576 18.5532 16.5298 18.558 15.8705 18.89C15.5528 19.0488 15.0716 19.251 14.8021 19.3328C14.5278 19.4194 14.2583 19.5301 14.2053 19.5782C14.1476 19.6263 14.008 19.9151 13.8973 20.2183L13.6904 20.7717H12.8867H12.083L11.8809 20.2279C11.7702 19.9343 11.6499 19.6504 11.6162 19.6071C11.5825 19.5638 11.2938 19.4387 10.9713 19.3328C10.6537 19.2269 10.1532 19.02 9.85966 18.8708C9.25328 18.5532 9.32066 18.5532 8.52659 18.9189L8.08384 19.1258L7.52078 18.558L6.95772 17.9949L7.20316 17.4367C7.33791 17.1335 7.44859 16.8351 7.44859 16.7773C7.44859 16.7196 7.34272 16.4742 7.21278 16.2335C6.97216 15.7812 6.79409 15.3288 6.65453 14.8427C6.61122 14.6887 6.54384 14.5347 6.50534 14.4962C6.47166 14.4577 6.17809 14.3278 5.86047 14.2027L5.28297 13.9765V13.7888V13.6011H7.01066H8.73353L8.76241 13.8513Z" fill="#A0A3BD"/>
<path d="M10.5089 12.8848C10.3982 12.9714 10.3838 13.0147 10.3838 13.2794C10.3886 14.4537 11.3126 15.4932 12.5157 15.6809C13.9835 15.9071 15.384 14.7376 15.3888 13.2794C15.3888 13.0147 15.3744 12.9714 15.2637 12.8848C15.1385 12.7837 15.0904 12.7837 12.8863 12.7837C10.6822 12.7837 10.634 12.7837 10.5089 12.8848ZM14.4937 13.7077C14.3734 14.1072 14.0124 14.5259 13.637 14.7087C13.5215 14.7617 13.2954 14.8339 13.1365 14.8627C12.3665 15.0071 11.5147 14.4729 11.2789 13.7077L11.2452 13.6019H12.8863H14.5274L14.4937 13.7077Z" fill="#A0A3BD"/>
</g>
<defs>
<clipPath id="clip0_753_11131">
<rect width="24.64" height="24.64" fill="white" transform="translate(0.566406 0.414062)"/>
</clipPath>
</defs>
</svg>
