<svg width="25" height="24" viewBox="0 0 25 24" fill="none" xmlns="http://www.w3.org/2000/svg">
<g clip-path="url(#clip0_753_2843)">
<path d="M1.49141 2.01992C1.20547 2.1043 0.896094 2.35273 0.760156 2.61992L0.628906 2.86836V11.5824C0.628906 19.3027 0.638281 20.3199 0.699219 20.4699C0.816406 20.7465 0.975781 20.9199 1.24297 21.0699L1.49609 21.2105L3.44609 21.2246L5.40078 21.2387L5.43359 21.4027C5.47109 21.623 5.74766 21.923 5.96328 21.984C6.20234 22.0496 19.0555 22.0496 19.2945 21.984C19.5102 21.923 19.7867 21.623 19.8242 21.4027L19.857 21.2387L21.8117 21.2246L23.7617 21.2105L24.0148 21.0699C24.282 20.9199 24.4414 20.7465 24.5586 20.4699C24.6195 20.3199 24.6289 19.3027 24.6289 11.5824V2.86836L24.4977 2.61992C24.357 2.34336 24.0523 2.09961 23.7477 2.01523C23.5227 1.9543 1.70234 1.95898 1.49141 2.01992ZM23.593 2.88242C23.668 2.91992 23.7383 2.98555 23.757 3.02305C23.7945 3.12617 23.7945 20.0762 23.757 20.1793C23.6773 20.3762 23.5508 20.3902 21.6523 20.3902C19.8664 20.3902 19.8477 20.3902 19.8477 20.2965C19.8477 20.1371 19.6742 19.8418 19.5102 19.7246L19.3555 19.6168H12.6289H5.90234L5.74766 19.7246C5.58359 19.8418 5.41016 20.1371 5.41016 20.2965C5.41016 20.3902 5.39141 20.3902 3.60547 20.3902C1.70703 20.3902 1.58047 20.3762 1.50078 20.1793C1.48672 20.1371 1.47266 16.2699 1.47266 11.5824C1.47266 4.83711 1.48672 3.05117 1.53359 2.99023C1.56172 2.95273 1.63203 2.89648 1.68359 2.86836C1.74922 2.83086 4.86172 2.8168 12.6195 2.81211C22.0461 2.81211 23.4805 2.82148 23.593 2.88242ZM19.0039 20.8121V21.1871H12.6289H6.25391V20.8121V20.4371H12.6289H19.0039V20.8121Z" fill="white"/>
<path d="M2.85547 3.62719C2.78047 3.66 2.60234 3.80531 2.47109 3.95063C2.26953 4.16156 2.22266 4.24125 2.22266 4.37719C2.22266 4.60688 2.26016 4.68188 2.41953 4.76156C2.65391 4.88344 2.82734 4.81781 3.15547 4.48031C3.39453 4.22719 3.44141 4.15219 3.44141 4.01156C3.44141 3.70219 3.14141 3.50531 2.85547 3.62719Z" fill="white"/>
<path d="M5.19922 3.65156C5.12422 3.69844 4.42109 4.38281 3.64297 5.16562C2.22734 6.58594 2.22266 6.59062 2.22266 6.7875C2.22266 7.05469 2.37734 7.21875 2.63047 7.21875C2.79922 7.21875 2.86953 7.15312 4.31797 5.70937C5.82266 4.20469 5.83203 4.19531 5.83203 4.00312C5.83203 3.83906 5.80859 3.78281 5.68672 3.68437C5.51797 3.53906 5.39141 3.52969 5.19922 3.65156Z" fill="white"/>
<path d="M12.7227 5.64844C11.3258 6.04219 10.4211 7.25625 10.2383 9C10.2148 9.24375 10.1914 9.83438 10.1914 10.3125C10.1867 12.4969 9.96172 14.0109 9.50703 14.9438C9.02422 15.9188 8.26016 16.3594 7.05547 16.3594C6.04297 16.3594 5.32109 16.0359 4.73984 15.3375C4.34141 14.8547 3.96172 13.9828 3.88203 13.35C3.84453 13.0641 3.76016 12.8672 3.65234 12.825C3.61016 12.8109 3.49297 12.7969 3.39453 12.7969C3.15547 12.7969 3.01953 12.9609 3.01953 13.2469C3.01953 13.6781 3.24453 14.4656 3.52109 15.0234C4.03203 16.0313 4.74922 16.6828 5.73828 17.025C6.17891 17.175 6.19766 17.1797 7.02734 17.1797C7.99766 17.1797 8.24141 17.1328 8.87422 16.8234C9.89141 16.3219 10.5242 15.2391 10.8242 13.5047C10.9461 12.7734 10.993 12.1406 11.0352 10.5234C11.0727 9.16406 11.0914 8.86875 11.1758 8.53125C11.3961 7.63594 11.893 6.95625 12.5727 6.61875C12.9148 6.45 12.9477 6.44531 13.3977 6.45C13.7773 6.45 13.9273 6.47344 14.1523 6.55781C15.0055 6.89063 15.7414 7.65938 16.2383 8.73281C16.332 8.94375 16.5242 9.44531 16.6602 9.84375C17.1945 11.4281 17.668 12.2766 18.4039 12.9609C19.2805 13.7859 20.4852 13.9594 21.6102 13.425C22.0602 13.2141 22.2383 13.0406 22.2383 12.8297C22.2383 12.6 22.2008 12.525 22.0461 12.4453C21.8539 12.3422 21.732 12.3563 21.4836 12.5156C21.0898 12.7688 20.7664 12.8625 20.2695 12.8625C19.857 12.8625 19.8008 12.8484 19.5242 12.7078C18.9383 12.4078 18.3805 11.7422 17.9492 10.8141C17.8367 10.5656 17.6117 9.98906 17.4523 9.52969C17.1195 8.55 16.8992 8.06719 16.5523 7.53281C15.957 6.62344 15.1367 5.95781 14.2695 5.69531C13.8992 5.58281 13.0508 5.55938 12.7227 5.64844Z" fill="white"/>
</g>
<defs>
<clipPath id="clip0_753_2843">
<rect width="24" height="24" fill="white" transform="translate(0.628906)"/>
</clipPath>
</defs>
</svg>
