<svg width="26" height="26" viewBox="0 0 26 26" fill="none" xmlns="http://www.w3.org/2000/svg">
<g clip-path="url(#clip0_753_11077)">
<path d="M22.635 1.66797H3.00239C2.16833 1.66797 1.49219 2.34411 1.49219 3.17817V22.8107C1.49219 23.6448 2.16833 24.3209 3.00239 24.3209H22.635C23.469 24.3209 24.1452 23.6448 24.1452 22.8107V3.17817C24.1452 2.34411 23.469 1.66797 22.635 1.66797Z" stroke="#A0A3BD" stroke-width="2.05936" stroke-linecap="round" stroke-linejoin="round"/>
<path d="M13.8252 16.7676H19.6143" stroke="#A0A3BD" stroke-width="2.05936" stroke-linecap="round" stroke-linejoin="round"/>
<path d="M6.02246 16.7676H8.79116" stroke="#A0A3BD" stroke-width="2.05936" stroke-linecap="round" stroke-linejoin="round"/>
<path fill-rule="evenodd" clip-rule="evenodd" d="M13.825 16.7709C13.825 17.2687 13.6774 17.7554 13.4008 18.1693C13.1243 18.5832 12.7311 18.9058 12.2712 19.0963C11.8113 19.2868 11.3052 19.3367 10.817 19.2395C10.3287 19.1424 9.88024 18.9027 9.52823 18.5507C9.17622 18.1987 8.9365 17.7502 8.83938 17.2619C8.74226 16.7737 8.79211 16.2676 8.98261 15.8077C9.17312 15.3478 9.49573 14.9547 9.90965 14.6781C10.3236 14.4015 10.8102 14.2539 11.308 14.2539C11.9756 14.2539 12.6158 14.5191 13.0878 14.9911C13.5598 15.4631 13.825 16.1034 13.825 16.7709V16.7709Z" stroke="#A0A3BD" stroke-width="2.05936" stroke-linecap="round" stroke-linejoin="round"/>
<path d="M14.832 9.21875H6.02246" stroke="#A0A3BD" stroke-width="2.05936" stroke-linecap="round" stroke-linejoin="round"/>
<path fill-rule="evenodd" clip-rule="evenodd" d="M19.866 9.21817C19.866 8.72036 19.7184 8.23372 19.4418 7.8198C19.1653 7.40588 18.7722 7.08327 18.3122 6.89277C17.8523 6.70226 17.3462 6.65242 16.858 6.74954C16.3697 6.84666 15.9213 7.08638 15.5692 7.43838C15.2172 7.79039 14.9775 8.23888 14.8804 8.72713C14.7833 9.21538 14.8331 9.72146 15.0236 10.1814C15.2141 10.6413 15.5367 11.0344 15.9507 11.311C16.3646 11.5875 16.8512 11.7352 17.349 11.7352C18.0166 11.7352 18.6568 11.47 19.1288 10.998C19.6008 10.5259 19.866 9.88572 19.866 9.21817Z" stroke="#A0A3BD" stroke-width="2.05936" stroke-linecap="round" stroke-linejoin="round"/>
</g>
<defs>
<clipPath id="clip0_753_11077">
<rect width="24.7123" height="24.7123" fill="white" transform="translate(0.462891 0.636719)"/>
</clipPath>
</defs>
</svg>
