<svg width="58" height="58" viewBox="0 0 58 58" fill="none" xmlns="http://www.w3.org/2000/svg">
<circle cx="29" cy="29" r="28.5" fill="black" stroke="white"/>
<path d="M28.9016 13.2808C28.8383 14.7908 28.6768 17.1788 28.5434 18.5343C27.8551 25.4805 26.1694 27.4822 20.2768 28.332C18.5701 28.5708 14.0821 28.929 12.6563 28.929C12.4105 28.929 12.2139 28.9571 12.2139 28.9922C12.2139 29.0203 12.7266 29.0695 13.3587 29.0975C14.9109 29.1608 17.2918 29.3293 18.5701 29.4557C21.4356 29.7507 23.0581 30.123 24.4698 30.8253C26.9771 32.0755 28.0306 34.316 28.5434 39.4641C28.6768 40.8197 28.8383 43.2076 28.9016 44.7106C28.9296 45.3428 28.9718 45.8555 28.9999 45.8555C29.028 45.8555 29.0701 45.3428 29.0982 44.7106C29.1614 43.1514 29.33 40.7003 29.4634 39.429C30.1658 32.4758 31.8163 30.5233 37.7441 29.6735C39.5561 29.4066 43.8545 29.0695 45.4207 29.0695C45.6595 29.0695 45.8561 29.0414 45.8561 29.0062C45.8561 28.9781 45.3434 28.929 44.7183 28.9009C42.1407 28.7885 39.1277 28.5427 37.6738 28.325C31.7882 27.433 30.1658 25.5015 29.4634 18.5694C29.33 17.2982 29.1614 14.847 29.0982 13.2808C29.0701 12.6557 29.028 12.143 28.9999 12.143C28.9718 12.143 28.9296 12.6557 28.9016 13.2808Z" fill="white"/>
</svg>
