<svg width="26" height="26" viewBox="0 0 26 26" fill="none" xmlns="http://www.w3.org/2000/svg">
<g clip-path="url(#clip0_753_11095)">
<path d="M1.44894 1.57393C1.03905 1.97901 0.667736 2.37443 0.629158 2.45159C0.585758 2.53839 0.566469 2.65412 0.580935 2.75539C0.595402 2.84219 1.08727 3.70538 1.68523 4.70358C2.60629 6.24189 2.78471 6.50711 2.91491 6.56498C3.01618 6.60356 3.2814 6.62767 3.68647 6.62767H4.30372L7.23084 9.58372L10.1531 12.5446L8.40265 14.2951L6.65217 16.0456L6.34354 15.978C6.1603 15.9346 5.77452 15.9105 5.36462 15.9154C4.78595 15.9154 4.62199 15.9346 4.21692 16.0456C3.28623 16.3011 2.58218 16.7207 1.92153 17.4103C1.19336 18.1674 0.793115 18.9678 0.638803 19.9853C0.518246 20.7569 0.566469 21.4658 0.783471 22.1939C0.870271 22.4881 1.05834 22.6376 1.33803 22.6376C1.48752 22.6376 1.59361 22.546 2.59182 21.5526L3.68165 20.4676H4.13495H4.59306L5.13798 21.0125L5.67807 21.5526V22.0348V22.517L4.62199 23.5731C3.96617 24.2289 3.55627 24.6726 3.54181 24.7497C3.50805 24.933 3.59485 25.1837 3.72505 25.2705C4.15423 25.5502 5.6202 25.6708 6.43999 25.4876C7.40926 25.2754 8.2194 24.8221 8.89934 24.1132C9.48766 23.5008 9.88309 22.816 10.1146 22.0107C10.2592 21.514 10.2978 20.3518 10.1917 19.8648L10.1194 19.5272L11.5275 18.1143L12.9356 16.7014L13.2346 17.0197L13.5384 17.3427L13.3503 17.5549C13.1429 17.7912 13.1044 17.9118 13.1622 18.1384C13.2153 18.3458 13.413 18.4904 13.6445 18.4904C13.7939 18.4904 13.8711 18.4519 14.0351 18.3024L14.2424 18.1095L17.3576 21.4947C19.0743 23.3609 20.5741 24.9523 20.6946 25.0391C20.9598 25.232 21.3697 25.4249 21.7025 25.5117C22.0352 25.5985 22.8019 25.5985 23.1588 25.5068C23.9979 25.2898 24.7212 24.6871 25.0925 23.8866C25.2275 23.5876 25.2324 23.549 25.2468 22.7389C25.2613 21.9673 25.2565 21.8805 25.1552 21.6297C24.8948 20.9787 24.8418 20.9209 21.2685 17.6417C19.4022 15.9298 17.8784 14.5169 17.8784 14.5024C17.8784 14.488 17.9556 14.3915 18.0472 14.2902C18.3317 13.972 18.2594 13.5621 17.888 13.4222C17.7048 13.3499 17.5023 13.4174 17.2804 13.62L17.0827 13.8032L16.7596 13.5042L16.4365 13.2052L17.8495 11.7923L19.2672 10.3746L19.5517 10.4276C20.3088 10.5723 21.0611 10.5433 21.823 10.336C23.3806 9.91645 24.7212 8.58069 25.1552 7.01345C25.242 6.70483 25.2565 6.51676 25.2565 5.66322C25.2565 4.83861 25.242 4.61679 25.1648 4.34192C25.0539 3.93685 24.9527 3.82593 24.6537 3.797L24.4319 3.76807L23.3372 4.86272L22.2377 5.95255H21.7941H21.3504L20.82 5.40764L20.2944 4.86754L20.2895 4.39496V3.91756L21.3215 2.86148C21.987 2.18154 22.3583 1.75718 22.3776 1.68003C22.4113 1.48713 22.3245 1.23638 22.1943 1.14958C21.823 0.903641 20.4342 0.758972 19.6916 0.88435C18.6548 1.06277 17.7578 1.54018 17.02 2.30692C16.4317 2.91935 16.0604 3.55589 15.8241 4.34674C15.6602 4.9013 15.6119 6.02489 15.7277 6.55534L15.8 6.89289L14.0302 8.66749L12.2605 10.4373L9.30924 7.48603L6.35319 4.52998V3.89344C6.35319 3.50284 6.32908 3.20868 6.29532 3.13153C6.25192 3.03508 5.76487 2.72163 4.43393 1.92114C2.79436 0.942219 2.61111 0.84095 2.4134 0.84095C2.19639 0.84095 2.18675 0.845772 1.44894 1.57393ZM20.6946 2.00794C20.6175 2.09474 20.2702 2.46123 19.9182 2.8229L19.2769 3.47873V4.37567V5.27261L20.0098 6.04418C20.4101 6.46853 20.8103 6.84949 20.8971 6.89289C21.0804 6.97969 22.4162 6.99898 22.638 6.91701C22.7103 6.88807 23.1299 6.51193 23.5639 6.08275L24.3499 5.30155L24.3258 5.80788C24.2872 6.43478 24.1618 6.90254 23.8677 7.47157C23.6892 7.82359 23.559 7.99237 23.1829 8.36851C22.7826 8.77358 22.6621 8.85556 22.2184 9.07738C21.5626 9.40047 21.1865 9.4921 20.4824 9.4921C20.0581 9.4921 19.8362 9.46798 19.5228 9.38601C19.301 9.32332 19.0599 9.28956 18.9923 9.30403C18.9055 9.32332 17.2708 10.9243 13.9531 14.242L9.03919 19.1559L9.06812 19.4115C9.08741 19.5562 9.13081 19.8117 9.16939 19.9853C9.21279 20.1589 9.24655 20.5158 9.24655 20.781C9.24655 21.8467 8.82701 22.7871 8.00722 23.5538C7.31764 24.1952 6.57019 24.5086 5.62985 24.552L5.07529 24.5761L5.88543 23.7612L6.69075 22.9414V22.0348V21.133L5.93847 20.3663C5.52376 19.9468 5.11387 19.5706 5.02706 19.5321C4.839 19.4404 3.50805 19.4211 3.2814 19.5031C3.20907 19.5321 2.79436 19.9082 2.36035 20.3374L1.57914 21.1186V20.781C1.58397 20.3181 1.68523 19.7925 1.85401 19.3536C2.27837 18.2686 3.29105 17.362 4.44839 17.0389C4.99331 16.8846 5.82756 16.8846 6.39659 17.0389C6.61841 17.0968 6.8547 17.1306 6.92704 17.1161C7.01384 17.0968 8.61483 15.5296 11.9663 12.1781L16.8802 7.26421L16.8513 7.00863C16.832 6.86396 16.7886 6.60838 16.75 6.43478C16.5233 5.47515 16.7645 4.3178 17.3672 3.47391C18.0906 2.45641 19.2045 1.86809 20.4053 1.85845L20.8393 1.85363L20.6946 2.00794ZM5.34051 4.22618C5.34051 4.53481 5.36462 4.84825 5.39356 4.92541C5.41767 4.99774 6.80166 6.42031 8.48945 8.11293L11.5371 11.1606L11.214 11.4789L10.8958 11.802L7.81916 8.70607L4.73773 5.61017L4.0819 5.61499H3.42607L2.56771 4.1876L1.71417 2.76021L2.10959 2.35996L2.50502 1.95972L3.92277 2.81326L5.34051 3.66198V4.22618ZM16.0459 14.2468L16.3594 14.5314L15.3226 15.5682C14.7536 16.142 14.2762 16.6049 14.2617 16.6049C14.2472 16.6001 14.1074 16.4603 13.9483 16.2867L13.6637 15.978L14.6716 14.9702C15.231 14.4108 15.6939 13.9575 15.7084 13.9575C15.7228 13.9623 15.8723 14.0877 16.0459 14.2468ZM20.4197 18.2542C22.2184 19.8985 23.7809 21.3549 23.8918 21.4851C24.673 22.4061 24.3499 23.8335 23.2311 24.3881C22.9418 24.5327 22.8839 24.5424 22.4354 24.5424C21.9918 24.5424 21.9291 24.5279 21.6398 24.3881C21.4662 24.3061 21.2492 24.1662 21.1479 24.0746C21.0515 23.9878 19.7012 22.5267 18.1436 20.8292C16.5812 19.1318 15.231 17.661 15.1345 17.5597L14.9658 17.3813L16.0218 16.3204C16.6053 15.7369 17.0972 15.2595 17.1165 15.2595C17.1358 15.2595 18.6259 16.6049 20.4197 18.2542Z" fill="#A0A3BD"/>
<path d="M17.0977 8.39189C16.9241 8.48352 16.8662 8.59925 16.8662 8.84519C16.8662 9.39975 17.6764 9.50101 17.821 8.96574C17.9464 8.52209 17.4979 8.17007 17.0977 8.39189Z" fill="#A0A3BD"/>
<path d="M15.7807 9.73233C15.7036 9.77091 14.2424 11.1983 12.5402 12.9054L9.43945 16.0109V16.2086C9.43945 16.5896 9.79148 16.8307 10.129 16.686C10.2158 16.6475 11.6143 15.2876 13.3841 13.513L16.48 10.4075V10.2049C16.48 9.8336 16.1086 9.58284 15.7807 9.73233Z" fill="#A0A3BD"/>
<path d="M8.29653 17.1889C8.03131 17.3481 8.00237 17.7772 8.23867 17.975C8.5714 18.2498 9.05363 18.0425 9.05363 17.6229C9.05363 17.3722 8.99094 17.2564 8.81252 17.1648C8.62445 17.0684 8.47978 17.0732 8.29653 17.1889Z" fill="#A0A3BD"/>
<path d="M17.5123 17.5545C17.2664 17.6751 17.1651 17.9982 17.2953 18.2345C17.3194 18.2827 18.361 19.3339 19.6004 20.5733L21.862 22.8301H22.0838C22.46 22.8301 22.6866 22.4925 22.5419 22.1501C22.4503 21.9428 18.1006 17.5979 17.9126 17.5304C17.7341 17.4629 17.6907 17.4629 17.5123 17.5545Z" fill="#A0A3BD"/>
</g>
<defs>
<clipPath id="clip0_753_11095">
<rect width="24.69" height="24.7382" fill="white" transform="translate(0.566406 0.841797)"/>
</clipPath>
</defs>
</svg>
