<svg width="170" height="44" viewBox="0 0 170 44" fill="none" xmlns="http://www.w3.org/2000/svg">
<path fill-rule="evenodd" clip-rule="evenodd" d="M1.92334 1.62942C1.33089 1.86632 0.969062 2.47753 0.708417 2.94888C0.447772 3.42023 0.505423 4.47943 0.505423 4.47943L0.526128 22.1793C0.53851 32.7437 0.62519 40.1687 0.741303 40.5976C0.908368 41.9227 1.92334 42.8362 3.03534 43.2243C3.89847 43.6421 4.09822 43.6468 21.8093 43.6527C36.6743 43.6575 39.8258 43.6106 40.3887 43.3754C41.4569 42.929 42.4702 41.9144 42.9414 40.8193C43.3691 39.825 43.374 39.6628 43.3222 28.2827L43.2698 16.7537C43.2698 16.7537 42.7252 16.7515 42.3192 16.9544C41.9132 17.1574 41.5827 17.3604 41.0133 17.9065C38.6917 20.1329 38.917 18.9523 38.7855 29.577C38.7219 34.6937 38.6038 38.9491 38.5226 39.0335C38.4416 39.118 30.9355 39.1636 21.8426 39.135L5.30989 39.0831L5.2084 22.6767C5.15257 13.6532 5.17998 6.13993 5.26929 5.98037C5.40774 5.73292 7.84834 5.69049 21.9656 5.69049C31.0591 5.69049 38.4995 5.73901 38.4995 5.79808C38.4995 5.85736 37.1085 7.88973 35.4087 10.3147C33.7086 12.7397 29.9173 18.1493 26.9834 22.336C24.0495 26.5228 21.5401 29.9483 21.4069 29.9483C21.274 29.9483 20.5489 29.0805 19.7958 28.0199C12.4658 17.6964 12.2271 17.3836 11.4592 17.0923C10.4568 16.7119 9.36085 16.9344 8.62885 17.6666C7.82317 18.4722 7.85321 19.3652 8.72933 20.6386C9.33527 21.5194 14.5813 28.8103 17.7975 33.2413C19.2519 35.2454 19.7272 35.5855 21.219 35.6898C23.2357 35.8307 21.762 37.6771 37.6284 15.1297C40.3782 11.2221 42.8137 7.58991 43.0411 7.05807C43.4115 6.19067 43.4292 5.97266 43.2118 4.93617C42.9312 3.59904 42.1767 2.55078 41.0176 1.8876L40.2249 1.43431L21.7175 1.43086L3.20992 1.42761C3.20992 1.42761 2.51579 1.39252 1.92334 1.62942ZM123.269 5.49765C121.511 7.04101 122.019 9.78205 124.17 10.3614C127.034 11.1324 129.012 7.65711 126.908 5.55266C126.434 5.07928 125.648 4.87852 125.104 4.87852C124.56 4.87852 123.874 4.96601 123.269 5.49765ZM54.13 6.06989C54.13 6.16672 55.6001 10.346 57.3968 15.3569C59.1935 20.3676 61.4015 26.5457 62.303 29.0856L63.9426 33.7037H67.3202H70.698L71.0212 32.7395C71.1988 32.2093 72.0453 29.7656 72.9021 27.3094C73.7592 24.8532 74.9924 21.2906 75.6428 19.3926C76.2934 17.4946 77.4821 14.0691 78.2847 11.7803C79.0874 9.49156 79.8683 7.23061 80.0203 6.75621L80.2968 5.89349H77.5052H74.7137L71.0843 17.0622C69.0881 23.2052 67.3937 28.1607 67.3188 28.0747C67.2441 27.9888 66.2457 25.1323 65.1004 21.727C63.9552 18.3218 62.2876 13.3663 61.395 10.7146L59.7718 5.89349H56.9508C55.3993 5.89349 54.13 5.97286 54.13 6.06989ZM158.571 12.5966C156.223 12.8533 154.828 13.4571 153.417 14.8267C150.882 17.2869 151.018 21.4672 153.693 23.2848C154.728 23.9882 155.713 24.2961 159.173 24.9977C163.626 25.901 164.356 26.3042 164.356 27.8599C164.356 29.401 162.959 30.2412 160.387 30.2483C159.048 30.252 158.569 30.1617 157.744 29.7506C156.714 29.2376 156.033 28.3944 156.033 27.6334C156.033 27.2262 155.933 27.2079 153.699 27.2079H151.364V27.8822C151.364 29.6333 152.706 31.7221 154.511 32.7795C156.494 33.9418 160.469 34.4493 163.179 33.886C165.831 33.3347 168.223 31.5043 168.905 29.505C169.343 28.2184 169.317 26.1034 168.849 25.0746C167.976 23.1527 166.129 22.1712 161.803 21.3308C160.025 20.9853 158.3 20.6116 157.97 20.5003C155.535 19.6792 156.133 17.0395 158.883 16.4685C159.669 16.3053 160.313 16.2984 161.085 16.4447C162.805 16.7711 163.596 17.3862 164.027 18.7329C164.126 19.0441 164.43 19.0881 166.481 19.0881H168.822V18.5883C168.822 18.3133 168.635 17.5894 168.407 16.9796C167.227 13.8269 163.304 12.0787 158.571 12.5966ZM85.5627 12.8889C84.2371 13.2543 82.5963 14.2412 81.6043 15.27C79.7274 17.2165 78.7748 19.4894 78.5584 22.5372C78.0899 29.1369 81.8731 33.7384 88.0309 34.0588C91.3513 34.2315 93.4864 33.5145 95.5731 31.5262C96.6492 30.5007 98.0412 28.2671 98.0412 27.6374C98.0412 27.6374 97.0651 27.6374 95.6052 27.6116H93.1693L92.6663 28.247C91.9432 29.2303 91.1422 29.7729 89.9837 30.0646C87.7161 30.6356 85.2176 29.6164 84.225 27.7154C83.9061 27.1046 83.3681 25.2981 83.3636 24.8227C83.3618 24.6244 84.977 24.569 90.7705 24.569H98.1798L98.1763 23.0973C98.1719 21.2382 97.7235 19.0997 97.0491 17.7216C95.9467 15.4681 93.5814 13.5257 91.1846 12.9053C89.7431 12.5324 86.887 12.5241 85.5627 12.8889ZM107.671 12.8123C104.534 13.5517 101.867 16.2507 100.767 19.7986C100.24 21.4971 100.156 24.841 100.595 26.5989C101.496 30.2002 104.092 32.896 107.544 33.8147C108.814 34.1527 111.684 34.1921 112.998 33.8894C114.572 33.5269 116.375 32.502 117.464 31.3504C118.386 30.3762 119.612 27.6116 119.612 27.6116C119.612 27.6116 118.442 27.6116 117.123 27.6116H114.687L114.208 28.338C112.897 30.459 109.223 30.8192 107.074 29.0375C106.241 28.3479 105.369 26.6894 105.164 25.4075L105.03 24.569H112.363H119.697L119.694 22.7928C119.688 19.4267 118.688 16.8312 116.693 15.0079C115.4 13.8267 114.474 13.3162 112.86 12.8958C111.6 12.5675 108.894 12.5239 107.671 12.8123ZM129.957 12.9983C129.908 13.0882 133.091 22.0533 136.191 30.5573L137.301 33.6022L140.236 33.6582L143.171 33.7141L143.744 32.0343C144.059 31.1103 144.708 29.2581 145.186 27.9184C147.793 20.6132 150.426 12.0863 150.426 12.0863H169.203V8.83834H146.366C146.366 8.83834 144.021 16.6142 142.706 20.6613C141.391 24.7086 140.251 28.0199 140.172 28.0199C140.093 28.0199 139.973 27.7653 139.905 27.4543C139.836 27.1431 138.749 23.7487 137.489 19.9107L135.198 12.9325L132.604 12.9147C131.178 12.9049 129.987 12.9425 129.957 12.9983ZM122.742 23.351V33.7037H125.077H127.411V23.351V12.9983H125.077H122.742V23.351ZM89.9975 16.7539C91.3391 17.1524 92.5483 18.4308 92.9898 19.9178C93.1648 20.5068 93.3079 21.0178 93.3079 21.0535C93.3079 21.089 91.1156 21.1181 88.4361 21.1181C82.8974 21.1181 83.1793 21.2289 84.0488 19.3926C85.2119 16.9368 87.3779 15.976 89.9975 16.7539ZM112.335 16.9285C113.638 17.6026 114.806 19.2195 114.89 20.4673L114.927 21.0166L110.106 21.071C104.616 21.1329 104.9 21.2431 105.767 19.3812C106.321 18.1899 107.637 16.978 108.703 16.6772C109.688 16.3988 111.562 16.5286 112.335 16.9285Z" fill="url(#paint0_linear_753_14477)"/>
<path d="M146.891 4.4869C146.891 3.79492 147.041 3.17946 147.34 2.64052C147.639 2.09493 148.055 1.67242 148.588 1.37301C149.126 1.06695 149.735 0.913913 150.414 0.913913C151.246 0.913913 151.958 1.13348 152.55 1.57262C153.142 2.01176 153.538 2.61058 153.737 3.36909H151.861C151.721 3.07633 151.522 2.85344 151.262 2.70041C151.009 2.54737 150.72 2.47086 150.394 2.47086C149.868 2.47086 149.443 2.65383 149.117 3.01978C148.79 3.38573 148.627 3.87477 148.627 4.4869C148.627 5.09903 148.79 5.58807 149.117 5.95402C149.443 6.31997 149.868 6.50294 150.394 6.50294C150.72 6.50294 151.009 6.42642 151.262 6.27339C151.522 6.12036 151.721 5.89746 151.861 5.6047H153.737C153.538 6.36321 153.142 6.96204 152.55 7.40118C151.958 7.83366 151.246 8.0499 150.414 8.0499C149.735 8.0499 149.126 7.9002 148.588 7.60078C148.055 7.29472 147.639 6.87221 147.34 6.33327C147.041 5.79433 146.891 5.17887 146.891 4.4869ZM158.156 8L156.699 5.35519H156.29V8H154.583V0.993756H157.447C158 0.993756 158.469 1.09023 158.855 1.28319C159.247 1.47614 159.54 1.74229 159.733 2.08162C159.926 2.4143 160.022 2.7869 160.022 3.19943C160.022 3.66518 159.889 4.08103 159.623 4.44698C159.364 4.81292 158.978 5.07241 158.465 5.22545L160.082 8H158.156ZM156.29 4.14756H157.348C157.66 4.14756 157.893 4.07105 158.046 3.91801C158.206 3.76498 158.286 3.54874 158.286 3.26929C158.286 3.00314 158.206 2.79356 158.046 2.64052C157.893 2.48749 157.66 2.41097 157.348 2.41097H156.29V4.14756ZM168.828 0.993756V8H167.122V3.79825L165.555 8H164.178L162.601 3.78827V8H160.894V0.993756H162.91L164.876 5.84423L166.822 0.993756H168.828Z" fill="white"/>
<defs>
<linearGradient id="paint0_linear_753_14477" x1="0.5" y1="22.5394" x2="169.217" y2="22.5394" gradientUnits="userSpaceOnUse">
<stop stop-color="#DE8B2D"/>
<stop offset="0.471154" stop-color="#84A053"/>
<stop offset="1" stop-color="#4A6544"/>
</linearGradient>
</defs>
</svg>
